<svg width="29" height="30" viewBox="0 0 29 30" fill="none" xmlns="http://www.w3.org/2000/svg">
<path d="M24.983 24.6698C12.9762 30.3841 5.52458 25.6031 0.754586 22.6993C0.459421 22.5163 -0.0422577 22.7421 0.393017 23.242C1.98214 25.1689 7.19003 29.8131 13.9879 29.8131C20.7903 29.8131 24.8372 26.1014 25.3434 25.4539C25.8463 24.8119 25.4911 24.4577 24.9829 24.6698H24.983ZM28.3551 22.8075C28.0327 22.3877 26.3945 22.3094 25.3635 22.436C24.331 22.559 22.7811 23.1901 22.9158 23.569C22.985 23.711 23.1261 23.6473 23.8354 23.5835C24.5467 23.5125 26.5393 23.2611 26.9545 23.8038C27.3716 24.3503 26.319 26.9538 26.1267 27.3737C25.941 27.7935 26.1977 27.9018 26.5466 27.6221C26.8907 27.3426 27.5137 26.6187 27.9317 25.5942C28.3469 24.5642 28.6001 23.1272 28.355 22.8075H28.3551Z" fill="#FF9900"/>
<path fill-rule="evenodd" clip-rule="evenodd" d="M16.9025 13.0089C16.9025 14.5082 16.9403 15.7586 16.1825 17.0901C15.5709 18.1727 14.602 18.8385 13.5194 18.8385C12.0416 18.8385 11.181 17.7126 11.181 16.0509C11.181 12.7706 14.1201 12.1753 16.9025 12.1753V13.0089ZM20.7834 22.3894C20.529 22.6166 20.1609 22.633 19.8741 22.4813C18.5967 21.4205 18.3693 20.9279 17.6657 19.9156C15.5547 22.07 14.0607 22.7141 11.3218 22.7141C8.08493 22.7141 5.5625 20.7167 5.5625 16.7166C5.5625 13.5935 7.25682 11.4662 9.66538 10.427C11.7548 9.5067 14.6724 9.34435 16.9025 9.09003V8.592C16.9025 7.67718 16.9727 6.59464 16.437 5.80441C15.966 5.09531 15.0675 4.803 14.2771 4.803C12.8103 4.803 11.5004 5.55534 11.181 7.11423C11.116 7.46074 10.8617 7.80177 10.5153 7.81797L6.78036 7.4175C6.46648 7.34699 6.12009 7.09267 6.20668 6.61084C7.06731 2.08581 11.1539 0.72168 14.8129 0.72168C16.6858 0.72168 19.1324 1.21971 20.6101 2.63792C22.483 4.3862 22.3043 6.71912 22.3043 9.25775V15.2552C22.3043 17.0577 23.0513 17.8479 23.7549 18.8223C24.0039 19.1687 24.0581 19.5856 23.7441 19.8453C22.9592 20.5002 21.5627 21.7181 20.7942 22.4002L20.7833 22.3894" fill="#141920"/>
</svg>
