<svg width="17" height="16" viewBox="0 0 17 16" fill="none" xmlns="http://www.w3.org/2000/svg">
<path d="M13.6654 6H7.66536C6.92898 6 6.33203 6.59695 6.33203 7.33333V13.3333C6.33203 14.0697 6.92898 14.6667 7.66536 14.6667H13.6654C14.4017 14.6667 14.9987 14.0697 14.9987 13.3333V7.33333C14.9987 6.59695 14.4017 6 13.6654 6Z" stroke="#4D494F" stroke-linecap="round" stroke-linejoin="round"/>
<path d="M3.66406 9.99967H2.9974C2.64377 9.99967 2.30464 9.8592 2.05459 9.60915C1.80454 9.3591 1.66406 9.01996 1.66406 8.66634V2.66634C1.66406 2.31272 1.80454 1.97358 2.05459 1.72353C2.30464 1.47348 2.64377 1.33301 2.9974 1.33301H8.9974C9.35102 1.33301 9.69016 1.47348 9.9402 1.72353C10.1903 1.97358 10.3307 2.31272 10.3307 2.66634V3.33301" stroke="#4D494F" stroke-linecap="round" stroke-linejoin="round"/>
</svg>
