<svg width="102" height="107" viewBox="0 0 102 107" fill="none" xmlns="http://www.w3.org/2000/svg">
<g opacity="0.286842">
<path d="M50.9346 5C76.5619 5 97.3693 25.8074 97.3693 51.4346C97.3693 77.0619 76.5619 97.8693 50.9346 97.8693C25.3074 97.8693 4.5 77.0619 4.5 51.4346C4.5 25.8074 25.3074 5 50.9346 5Z" stroke="#F0E4F9" stroke-width="8.17886"/>
</g>
<g opacity="0.524">
<path d="M50.6979 27.5224C64.0336 27.5224 74.8611 38.3499 74.8611 51.6856C74.8611 65.0213 64.0336 75.8488 50.6979 75.8488C37.3622 75.8488 26.5347 65.0213 26.5347 51.6856C26.5347 38.3499 37.3622 27.5224 50.6979 27.5224Z" fill="#E3CCF4"/>
<path d="M50.6979 27.5224C64.0336 27.5224 74.8611 38.3499 74.8611 51.6856C74.8611 65.0213 64.0336 75.8488 50.6979 75.8488C37.3622 75.8488 26.5347 65.0213 26.5347 51.6856C26.5347 38.3499 37.3622 27.5224 50.6979 27.5224Z" stroke="#D4C6DE" stroke-width="3.55342"/>
</g>
<path d="M50.407 43.6471C46.4115 44.5507 46.1812 47.8729 46.1812 47.8729L50.8766 84.81C50.8766 84.81 44.2248 81.0539 43.4423 80.5059C42.6597 79.958 39.5295 79.0975 36.9472 81.6798C34.3649 84.2621 36.4775 88.0965 36.4775 88.0965C36.4775 88.0965 47.1205 99.9917 49.3115 102.183C51.5025 104.374 54.3198 105 56.3546 105C58.3893 105 63.5543 104.843 66.5279 104.53C69.5014 104.217 76.2316 103.748 76.2316 103.748C76.2316 103.748 79.5181 103.748 82.805 102.026C86.092 100.305 87.9974 97.1626 88.7526 94.9834C89.0964 93.9914 89.2222 92.166 89.2222 92.166L88.5959 79.3321C88.5959 79.3321 87.3437 74.1671 85.1527 71.8194C82.9617 69.4717 77.6405 66.4982 76.0753 66.0285C74.5102 65.5589 73.258 65.7156 73.258 65.7156L60.2696 67.8779L56.6675 47.4033C56.6675 47.4033 55.0388 42.5995 50.407 43.6471Z" fill="white" fill-opacity="0.8"/>
<path d="M50.407 43.6471C46.4115 44.5507 46.1812 47.8729 46.1812 47.8729L50.8766 84.81C50.8766 84.81 44.2248 81.0539 43.4423 80.5059C42.6597 79.958 39.5295 79.0975 36.9472 81.6798C34.3649 84.2621 36.4775 88.0965 36.4775 88.0965C36.4775 88.0965 47.1205 99.9917 49.3115 102.183C51.5025 104.374 54.3198 105 56.3546 105C58.3893 105 63.5543 104.843 66.5279 104.53C69.5014 104.217 76.2316 103.748 76.2316 103.748C76.2316 103.748 79.5181 103.748 82.805 102.026C86.092 100.305 87.9974 97.1626 88.7526 94.9834C89.0964 93.9914 89.2222 92.166 89.2222 92.166L88.5959 79.3321C88.5959 79.3321 87.3437 74.1671 85.1527 71.8194C82.9617 69.4717 77.6405 66.4982 76.0753 66.0285C74.5102 65.5589 73.258 65.7156 73.258 65.7156L60.2696 67.8779L56.6675 47.4033C56.6675 47.4033 55.0388 42.5995 50.407 43.6471Z" stroke="#181717" stroke-opacity="0.8" stroke-width="2.1762"/>
</svg>
