<svg width="23" height="12" viewBox="0 0 23 12" fill="none" xmlns="http://www.w3.org/2000/svg">
<g clip-path="url(#clip0_3371_5733)">
<path d="M3.30043 2.33171V5.08537C3.30043 5.08537 4.27072 5.08537 4.79001 5.04596C5.19839 4.97446 5.27355 4.93504 5.34872 4.52666L5.49905 3.92854H5.94318L5.86801 5.23571L5.90743 6.57496H5.45964L5.34872 6.052C5.2378 5.67983 5.08747 5.60421 4.79001 5.56846C4.41784 5.52904 3.30043 5.52904 3.30043 5.52904V7.83858C3.30043 8.28271 3.52593 8.47246 4.04522 8.47246H5.60997C6.09351 8.47246 6.57659 8.43304 6.87772 7.72766L7.28243 6.83254H7.65826C7.61884 7.01862 7.43276 8.65854 7.39701 9.0275C7.39701 9.0275 5.98259 8.99175 5.38814 8.99175H2.70597L1.10547 9.0275V8.62279L1.62476 8.50821C2.00059 8.43304 2.11151 8.32212 2.11151 8.02466C2.11151 8.02466 2.15093 7.01862 2.15093 5.3425C2.15093 3.6705 2.11151 2.664 2.11151 2.664C2.11151 2.33079 2.00059 2.25562 1.62476 2.18046L1.10547 2.07046V1.66208L2.67022 1.69416H5.64939C6.24384 1.69416 7.24622 1.58691 7.24622 1.58691C7.24622 1.58691 7.21047 2.21712 7.17105 3.70671H6.76268L6.61234 3.18375C6.46568 2.51412 6.24339 2.18091 5.8318 2.18091H3.49018C3.30043 2.18137 3.30043 2.21712 3.30043 2.33171ZM9.33026 2.6255H9.77805V4.19025L11.3071 4.11508L11.2319 4.82412L9.7423 4.70954V7.46687C9.7423 8.24741 10.0036 8.54808 10.4513 8.54808C10.8561 8.54808 11.1567 8.32258 11.2676 8.1365L11.4895 8.39775C11.2676 8.91704 10.6374 9.17829 10.0393 9.17829C9.29818 9.17829 8.69639 8.73416 8.69639 7.87846V4.7485H7.80814V4.37633C8.55339 4.30116 9.10843 3.85337 9.33026 2.6255ZM12.5349 7.427L12.8319 8.13604C12.9428 8.43304 13.2041 8.73416 13.7986 8.73416C14.4324 8.73416 14.6937 8.39775 14.6937 7.98937C14.6937 6.72162 12.1981 7.09425 12.1981 5.38237C12.1981 4.41575 12.9786 3.96429 13.9846 3.96429C14.4324 3.96429 15.1021 4.03946 15.4385 4.18979C15.3633 4.56196 15.3239 5.0455 15.3239 5.41812L14.9549 5.45387L14.6937 4.70908C14.6185 4.52666 14.3178 4.37587 13.9489 4.37587C13.5011 4.37587 13.0538 4.56196 13.0538 5.0455C13.0538 6.19866 15.6246 5.94062 15.6246 7.6525C15.6246 8.62279 14.7688 9.14208 13.7234 9.14208C12.9428 9.14208 12.1586 8.84141 12.1586 8.84141C12.2338 8.39729 12.1981 7.91421 12.1586 7.427H12.5349ZM15.4389 11.0006C15.5498 10.5922 15.625 10.0734 15.7002 9.58621L16.1086 9.55046L16.2589 10.331C16.2946 10.5171 16.4056 10.6674 16.703 10.6674C17.1866 10.6674 17.8204 10.3704 18.4181 9.32816C18.1532 8.69429 17.3726 6.64966 16.6636 5.08491C16.4775 4.67333 16.4418 4.63712 16.1837 4.56196L15.994 4.49046V4.11462L17.1146 4.15404L18.4896 4.07887V4.4515L18.1532 4.52666C17.8919 4.56241 17.7842 4.70908 17.7842 4.85987C17.7842 4.89929 17.7842 4.93504 17.82 5.01021C17.8915 5.23571 18.4896 6.90816 18.9374 8.02512C19.3063 7.24458 20.0154 5.49375 20.1263 5.19629C20.1657 5.04596 20.2015 5.01021 20.2015 4.89929C20.2015 4.70954 20.0906 4.59862 19.8325 4.52712L19.5676 4.4515V4.07933L20.6131 4.11508L21.5797 4.07933V4.4515L21.3936 4.59816C21.0214 4.7485 20.982 4.78425 20.8349 5.08491L19.1986 8.91612C18.2283 11.1147 17.2223 11.3008 16.5165 11.3008C16.0691 11.3013 15.7327 11.1867 15.4389 11.0006Z" fill="#F45800"/>
</g>
<defs>
<clipPath id="clip0_3371_5733">
<rect width="22" height="11" fill="white" transform="translate(0.300781 0.900391)"/>
</clipPath>
</defs>
</svg>
