<svg width="25" height="24" viewBox="0 0 25 24" fill="none" xmlns="http://www.w3.org/2000/svg">
<g clip-path="url(#clip0_2372_54609)">
<path d="M24.7999 12C24.7999 17.9897 20.4115 22.9542 14.6749 23.8542V15.4688H17.471L18.0031 12H14.6749V9.74906C14.6749 8.79984 15.1399 7.875 16.6306 7.875H18.1437V4.92188C18.1437 4.92188 16.7702 4.6875 15.4573 4.6875C12.7165 4.6875 10.9249 6.34875 10.9249 9.35625V12H7.87805V15.4688H10.9249V23.8542C5.18836 22.9542 0.799927 17.9897 0.799927 12C0.799927 5.37281 6.17274 0 12.7999 0C19.4271 0 24.7999 5.37281 24.7999 12Z" fill="#1877F2"/>
<path d="M17.471 15.4688L18.0031 12H14.6749V9.74902C14.6749 8.80003 15.1398 7.875 16.6305 7.875H18.1437V4.92188C18.1437 4.92188 16.7704 4.6875 15.4575 4.6875C12.7164 4.6875 10.9249 6.34875 10.9249 9.35625V12H7.87805V15.4688H10.9249V23.8542C11.5359 23.95 12.1621 24 12.7999 24C13.4378 24 14.064 23.95 14.6749 23.8542V15.4688H17.471Z" fill="white"/>
</g>
<defs>
<clipPath id="clip0_2372_54609">
<rect width="24" height="24" fill="white" transform="translate(0.799927)"/>
</clipPath>
</defs>
</svg>
