<svg version="1.1" id="Layer_1" xmlns="http://www.w3.org/2000/svg" xmlns:xlink="http://www.w3.org/1999/xlink" x="0px" y="0px"
	 width="100%" viewBox="0 0 356 456" enable-background="new 0 0 356 456" xml:space="preserve">
<path fill="#FFFFFF" opacity="1.000000" stroke="none" 
	d="
M171.000000,457.000000 
	C114.017387,457.000000 57.534782,457.000000 1.026086,457.000000 
	C1.026086,305.064178 1.026086,153.128357 1.026086,1.096264 
	C119.565903,1.096264 238.131897,1.096264 356.848938,1.096264 
	C356.848938,152.999878 356.848938,304.999939 356.848938,457.000000 
	C295.128418,457.000000 233.314209,457.000000 171.000000,457.000000 
M310.982117,155.206116 
	C310.092926,154.219223 309.229462,153.207718 308.310822,152.249023 
	C285.439819,128.380890 262.592621,104.489845 239.672134,80.669281 
	C230.939392,71.593597 222.036179,62.681927 212.626099,53.030670 
	C210.809937,52.903721 208.993835,52.667057 207.177597,52.666004 
	C170.014954,52.644459 132.852295,52.643528 95.689629,52.651882 
	C67.771591,52.658161 48.009392,72.473328 48.004471,100.519653 
	C47.989357,186.677032 47.987835,272.834412 48.005375,358.991791 
	C48.011047,386.857727 67.981194,406.885010 95.778915,406.937500 
	C114.610153,406.973053 133.441513,406.944305 152.272812,406.944305 
	C190.268723,406.944244 228.264847,407.024231 266.260437,406.916199 
	C291.975220,406.843079 312.901459,386.850372 312.952423,362.029114 
	C313.090363,294.869965 313.012543,227.710327 312.927002,160.551010 
	C312.924988,158.977844 311.820862,157.406097 310.982117,155.206116 
z"/>
<path fill="#0A6838" opacity="1.000000" stroke="none" 
	d="
M311.230804,155.833694 
	C311.820862,157.406097 312.924988,158.977844 312.927002,160.551010 
	C313.012543,227.710327 313.090363,294.869965 312.952423,362.029114 
	C312.901459,386.850372 291.975220,406.843079 266.260437,406.916199 
	C228.264847,407.024231 190.268723,406.944244 152.272812,406.944305 
	C133.441513,406.944305 114.610153,406.973053 95.778915,406.937500 
	C67.981194,406.885010 48.011047,386.857727 48.005375,358.991791 
	C47.987835,272.834412 47.989357,186.677032 48.004471,100.519653 
	C48.009392,72.473328 67.771591,52.658161 95.689629,52.651882 
	C132.852295,52.643528 170.014954,52.644459 207.177597,52.666004 
	C208.993835,52.667057 210.809937,52.903721 212.821350,53.844780 
	C212.982010,58.320408 212.918457,61.981926 212.917389,65.643456 
	C212.909134,94.111740 212.980362,122.580368 212.833923,151.047897 
	C212.813965,154.926300 213.806107,156.407272 217.853851,156.143250 
	C222.992889,155.808014 228.170425,156.074524 233.331314,156.060272 
	C259.297821,155.988556 285.264313,155.909897 311.230804,155.833694 
M171.311142,239.058640 
	C171.893845,238.452759 172.965622,237.859909 172.982147,237.238968 
	C173.118530,232.115067 173.059250,226.985962 173.059250,221.608612 
	C157.265884,221.608612 141.879074,221.608612 126.299103,221.608612 
	C126.299103,227.463867 126.299103,233.038254 126.299103,239.068283 
	C141.130371,239.068283 155.735794,239.068283 171.311142,239.058640 
M190.638474,239.066711 
	C205.361282,239.066711 220.084076,239.066711 234.703735,239.066711 
	C234.703735,232.831726 234.703735,227.263657 234.703735,221.613770 
	C219.008255,221.613770 203.620483,221.613770 187.866486,221.613770 
	C187.866486,227.021103 187.806870,232.153854 187.945694,237.281219 
	C187.962128,237.888336 189.064880,238.466064 190.638474,239.066711 
M140.507462,251.328583 
	C135.756409,251.328583 131.005356,251.328583 126.404289,251.328583 
	C126.404289,257.699707 126.404289,263.280273 126.404289,268.720215 
	C142.127243,268.720215 157.512589,268.720215 172.727264,268.720215 
	C172.727264,262.797028 172.727264,257.228760 172.727264,251.328690 
	C162.093704,251.328690 151.799500,251.328690 140.507462,251.328583 
M188.680466,268.973755 
	C204.063477,268.973755 219.446487,268.973755 234.689941,268.973755 
	C234.689941,262.807007 234.689941,257.239868 234.689941,251.623322 
	C218.980011,251.623322 203.591843,251.623322 187.968262,251.623322 
	C187.968262,257.378052 187.968262,262.844147 188.680466,268.973755 
M172.418579,282.775696 
	C157.064896,282.775696 141.711212,282.775696 126.444550,282.775696 
	C126.444550,288.935852 126.444550,294.485565 126.444550,299.872009 
	C142.158936,299.872009 157.508621,299.872009 172.978363,299.872009 
	C172.978363,294.196869 172.978363,288.895203 172.418579,282.775696 
M207.500244,300.244171 
	C216.562485,300.244171 225.624725,300.244171 234.745728,300.244171 
	C234.745728,294.074585 234.745728,288.499451 234.745728,282.802368 
	C219.121201,282.802368 203.749863,282.802368 188.227539,282.802368 
	C188.227539,288.703125 188.227539,294.390045 188.227539,300.244232 
	C194.558014,300.244232 200.529190,300.244232 207.500244,300.244171 
M134.546768,330.134491 
	C147.300812,330.134491 160.054855,330.134491 172.717117,330.134491 
	C172.717117,323.908844 172.717117,318.333984 172.717117,312.847748 
	C157.101044,312.847748 141.825821,312.847748 126.366928,312.847748 
	C126.366928,318.672150 126.366928,324.237183 126.366928,330.134491 
	C128.953842,330.134491 131.259216,330.134491 134.546768,330.134491 
M191.604935,330.132416 
	C206.004745,330.132416 220.404572,330.132416 234.633804,330.132416 
	C234.633804,323.866821 234.633804,318.306488 234.633804,312.972076 
	C218.883087,312.972076 203.499039,312.972076 187.868896,312.972076 
	C187.868896,317.991730 187.710373,322.646118 187.994095,327.273346 
	C188.055573,328.275879 189.705688,329.181030 191.604935,330.132416 
z"/>
<path fill="#46926E" opacity="1.000000" stroke="none" 
	d="
M311.106445,155.519897 
	C285.264313,155.909897 259.297821,155.988556 233.331314,156.060272 
	C228.170425,156.074524 222.992889,155.808014 217.853851,156.143250 
	C213.806107,156.407272 212.813965,154.926300 212.833923,151.047897 
	C212.980362,122.580368 212.909134,94.111740 212.917389,65.643456 
	C212.918457,61.981926 212.982010,58.320408 213.113632,54.177200 
	C222.036179,62.681927 230.939392,71.593597 239.672134,80.669281 
	C262.592621,104.489845 285.439819,128.380890 308.310822,152.249023 
	C309.229462,153.207718 310.092926,154.219223 311.106445,155.519897 
z"/>
<path fill="#F8FBFA" opacity="1.000000" stroke="none" 
	d="
M170.826187,239.063461 
	C155.735794,239.068283 141.130371,239.068283 126.299103,239.068283 
	C126.299103,233.038254 126.299103,227.463867 126.299103,221.608612 
	C141.879074,221.608612 157.265884,221.608612 173.059250,221.608612 
	C173.059250,226.985962 173.118530,232.115067 172.982147,237.238968 
	C172.965622,237.859909 171.893845,238.452759 170.826187,239.063461 
z"/>
<path fill="#F9FCFB" opacity="1.000000" stroke="none" 
	d="
M190.151276,239.062073 
	C189.064880,238.466064 187.962128,237.888336 187.945694,237.281219 
	C187.806870,232.153854 187.866486,227.021103 187.866486,221.613770 
	C203.620483,221.613770 219.008255,221.613770 234.703735,221.613770 
	C234.703735,227.263657 234.703735,232.831726 234.703735,239.066711 
	C220.084076,239.066711 205.361282,239.066711 190.151276,239.062073 
z"/>
<path fill="#F8FBFA" opacity="1.000000" stroke="none" 
	d="
M141.006378,251.328644 
	C151.799500,251.328690 162.093704,251.328690 172.727264,251.328690 
	C172.727264,257.228760 172.727264,262.797028 172.727264,268.720215 
	C157.512589,268.720215 142.127243,268.720215 126.404289,268.720215 
	C126.404289,263.280273 126.404289,257.699707 126.404289,251.328583 
	C131.005356,251.328583 135.756409,251.328583 141.006378,251.328644 
z"/>
<path fill="#F9FCFB" opacity="1.000000" stroke="none" 
	d="
M188.324371,268.642029 
	C187.968262,262.844147 187.968262,257.378052 187.968262,251.623322 
	C203.591843,251.623322 218.980011,251.623322 234.689941,251.623322 
	C234.689941,257.239868 234.689941,262.807007 234.689941,268.973755 
	C219.446487,268.973755 204.063477,268.973755 188.324371,268.642029 
z"/>
<path fill="#FEFFFE" opacity="1.000000" stroke="none" 
	d="
M172.698471,283.184601 
	C172.978363,288.895203 172.978363,294.196869 172.978363,299.872009 
	C157.508621,299.872009 142.158936,299.872009 126.444550,299.872009 
	C126.444550,294.485565 126.444550,288.935852 126.444550,282.775696 
	C141.711212,282.775696 157.064896,282.775696 172.698471,283.184601 
z"/>
<path fill="#FFFFFF" opacity="1.000000" stroke="none" 
	d="
M207.000305,300.244202 
	C200.529190,300.244232 194.558014,300.244232 188.227539,300.244232 
	C188.227539,294.390045 188.227539,288.703125 188.227539,282.802368 
	C203.749863,282.802368 219.121201,282.802368 234.745728,282.802368 
	C234.745728,288.499451 234.745728,294.074585 234.745728,300.244171 
	C225.624725,300.244171 216.562485,300.244171 207.000305,300.244202 
z"/>
<path fill="#FEFFFE" opacity="1.000000" stroke="none" 
	d="
M134.055695,330.134491 
	C131.259216,330.134491 128.953842,330.134491 126.366928,330.134491 
	C126.366928,324.237183 126.366928,318.672150 126.366928,312.847748 
	C141.825821,312.847748 157.101044,312.847748 172.717117,312.847748 
	C172.717117,318.333984 172.717117,323.908844 172.717117,330.134491 
	C160.054855,330.134491 147.300812,330.134491 134.055695,330.134491 
z"/>
<path fill="#FFFFFF" opacity="1.000000" stroke="none" 
	d="
M191.114502,330.131714 
	C189.705688,329.181030 188.055573,328.275879 187.994095,327.273346 
	C187.710373,322.646118 187.868896,317.991730 187.868896,312.972076 
	C203.499039,312.972076 218.883087,312.972076 234.633804,312.972076 
	C234.633804,318.306488 234.633804,323.866821 234.633804,330.132416 
	C220.404572,330.132416 206.004745,330.132416 191.114502,330.131714 
z"/>
</svg>