<svg width="15" height="15" viewBox="0 0 15 15" fill="none" xmlns="http://www.w3.org/2000/svg">
<g clip-path="url(#clip0_2892_20313)">
<rect x="0.978516" y="0.376953" width="13.723" height="13.723" rx="2.19568" fill="white"/>
<rect x="-0.0546875" y="-0.628906" width="15.7352" height="15.7352" rx="2.13355" fill="url(#paint0_radial_2892_20313)"/>
<rect x="-0.0546875" y="-0.628906" width="15.7352" height="15.7352" rx="2.13355" fill="url(#paint1_radial_2892_20313)"/>
<rect x="-0.0546875" y="-0.628906" width="15.7352" height="15.7352" rx="2.13355" fill="url(#paint2_radial_2892_20313)"/>
<path fill-rule="evenodd" clip-rule="evenodd" d="M7.8326 9.63914C9.17787 9.63914 10.2684 8.56394 10.2684 7.23761C10.2684 5.91129 9.17787 4.83609 7.8326 4.83609C6.48732 4.83609 5.39677 5.91129 5.39677 7.23761C5.39677 8.56394 6.48732 9.63914 7.8326 9.63914ZM7.8326 8.67853C8.63976 8.67853 9.29409 8.03341 9.29409 7.23761C9.29409 6.44182 8.63976 5.7967 7.8326 5.7967C7.02543 5.7967 6.3711 6.44182 6.3711 7.23761C6.3711 8.03341 7.02543 8.67853 7.8326 8.67853Z" fill="white"/>
<path fill-rule="evenodd" clip-rule="evenodd" d="M2.96094 7.04549C2.96094 5.43152 2.96094 4.62453 3.27952 4.00807C3.55976 3.46582 4.00692 3.02496 4.55692 2.74867C5.18218 2.43457 6.0007 2.43457 7.63773 2.43457H8.02746C9.66449 2.43457 10.483 2.43457 11.1083 2.74867C11.6583 3.02496 12.1054 3.46582 12.3857 4.00807C12.7043 4.62453 12.7043 5.43152 12.7043 7.04549V7.42974C12.7043 9.04371 12.7043 9.8507 12.3857 10.4672C12.1054 11.0094 11.6583 11.4503 11.1083 11.7266C10.483 12.0407 9.66449 12.0407 8.02746 12.0407H7.63773C6.0007 12.0407 5.18218 12.0407 4.55692 11.7266C4.00692 11.4503 3.55976 11.0094 3.27952 10.4672C2.96094 9.8507 2.96094 9.04371 2.96094 7.42974V7.04549ZM7.63773 3.39518H8.02746C8.86205 3.39518 9.4294 3.39593 9.86794 3.43125C10.2951 3.46566 10.5135 3.52803 10.6659 3.60458C11.0326 3.78877 11.3307 4.08268 11.5175 4.44418C11.5952 4.59442 11.6584 4.80979 11.6933 5.23094C11.7292 5.6633 11.7299 6.22265 11.7299 7.04549V7.42974C11.7299 8.25257 11.7292 8.81193 11.6933 9.24429C11.6584 9.66543 11.5952 9.88081 11.5175 10.031C11.3307 10.3925 11.0326 10.6865 10.6659 10.8706C10.5135 10.9472 10.2951 11.0096 9.86794 11.044C9.4294 11.0793 8.86205 11.08 8.02746 11.08H7.63773C6.80314 11.08 6.23579 11.0793 5.79725 11.044C5.37009 11.0096 5.15164 10.9472 4.99926 10.8706C4.63259 10.6865 4.33449 10.3925 4.14766 10.031C4.07002 9.88081 4.00676 9.66543 3.97186 9.24429C3.93603 8.81193 3.93527 8.25257 3.93527 7.42974V7.04549C3.93527 6.22265 3.93603 5.6633 3.97186 5.23094C4.00676 4.80979 4.07002 4.59442 4.14766 4.44418C4.33449 4.08268 4.63259 3.78877 4.99926 3.60458C5.15164 3.52803 5.37009 3.46566 5.79725 3.43125C6.23579 3.39593 6.80314 3.39518 7.63773 3.39518Z" fill="white"/>
<path d="M11.0573 4.69957C11.0573 5.04062 10.7809 5.3171 10.4398 5.3171C10.0987 5.3171 9.82227 5.04062 9.82227 4.69957C9.82227 4.35851 10.0987 4.08203 10.4398 4.08203C10.7809 4.08203 11.0573 4.35851 11.0573 4.69957Z" fill="white"/>
</g>
<defs>
<radialGradient id="paint0_radial_2892_20313" cx="0" cy="0" r="1" gradientUnits="userSpaceOnUse" gradientTransform="translate(5.56503 11.1725) rotate(-55.3758) scale(14.3413)">
<stop stop-color="#B13589"/>
<stop offset="0.79309" stop-color="#C62F94"/>
<stop offset="1" stop-color="#8A3AC8"/>
</radialGradient>
<radialGradient id="paint1_radial_2892_20313" cx="0" cy="0" r="1" gradientUnits="userSpaceOnUse" gradientTransform="translate(5.00306 15.6683) rotate(-65.1363) scale(12.6973)">
<stop stop-color="#E0E8B7"/>
<stop offset="0.444662" stop-color="#FB8A2E"/>
<stop offset="0.71474" stop-color="#E2425C"/>
<stop offset="1" stop-color="#E2425C" stop-opacity="0"/>
</radialGradient>
<radialGradient id="paint2_radial_2892_20313" cx="0" cy="0" r="1" gradientUnits="userSpaceOnUse" gradientTransform="translate(-0.897645 -0.0669343) rotate(-8.1301) scale(21.8556 4.67468)">
<stop offset="0.156701" stop-color="#406ADC"/>
<stop offset="0.467799" stop-color="#6A45BE"/>
<stop offset="1" stop-color="#6A45BE" stop-opacity="0"/>
</radialGradient>
<clipPath id="clip0_2892_20313">
<rect x="0.978516" y="0.376953" width="13.723" height="13.723" rx="2.19568" fill="white"/>
</clipPath>
</defs>
</svg>
