<svg width="156" height="32" viewBox="0 0 150 24" fill="none" xmlns="http://www.w3.org/2000/svg">
<path d="M12.0009 23.7332C18.481 23.7332 23.7342 18.48 23.7342 11.9999C23.7342 5.51977 18.481 0.266602 12.0009 0.266602C5.52075 0.266602 0.267578 5.51977 0.267578 11.9999C0.267578 18.48 5.52075 23.7332 12.0009 23.7332Z" fill="#20E086"/>
<path d="M10.7194 19.2384C9.85286 19.2384 9.14348 19.0324 8.60173 18.6218C8.14527 18.2755 7.88337 17.8395 7.73372 17.4558C7.60801 17.2095 7.5242 16.9273 7.48978 16.6153C7.47032 16.4376 7.47331 16.2585 7.48678 16.0808L8.08391 8.07993H6.44966L5.94233 16.0181C5.7792 18.0217 6.9989 19.6818 8.84267 19.9685C9.02226 19.9954 9.20335 20.0088 9.38144 20.0088C9.83041 20.0088 10.2674 19.9237 10.6834 19.7535L10.7313 19.7356C11.0621 19.5938 11.3704 19.4027 11.6442 19.1683C11.318 19.216 11.0112 19.2384 10.7209 19.2384H10.7194ZM18.6197 11.2122C18.5689 10.6897 18.3938 10.1746 18.1124 9.7237C18.0166 9.56843 17.9089 9.42212 17.7936 9.28924C17.7038 9.18474 17.6021 9.08172 17.4794 8.97124L17.3492 8.85479L17.4734 8.72938C17.9957 8.19639 18.301 7.50514 18.3339 6.78105C18.3683 6.02112 18.1034 5.30897 17.5901 4.7715C17.0753 4.23552 16.3749 3.94141 15.6161 3.94141C14.0388 3.94141 12.6978 5.22238 12.6275 6.79747C12.5991 7.43348 12.7786 8.03664 13.1483 8.53977L13.2471 8.67265L13.1169 8.77417C12.2908 9.41017 11.7685 10.4209 11.6862 11.5421L11.6098 12.3752H9.90823L9.79599 13.7249H11.4856L11.2192 16.6347C11.2087 16.7541 11.1893 16.8721 11.1638 16.987L11.1279 17.1065C10.884 17.9186 10.1791 18.4636 9.37695 18.4636C9.31409 18.4636 9.24974 18.4606 9.18539 18.4531C9.90075 18.8323 10.899 18.8876 12.1651 18.6144C12.7742 17.7888 12.8385 16.775 12.9059 15.7001C12.9178 15.5164 12.9283 15.3313 12.9433 15.1492L13.0585 13.7249H14.9098L15.022 12.3752H13.1678L13.2396 11.4988C13.4207 10.3791 14.1615 9.64606 15.1447 9.62964C15.2121 9.63412 15.2794 9.6386 15.3468 9.6386H15.3632C16.2043 9.72818 16.8493 10.3761 16.972 11.251L16.99 11.3794H18.6362L18.6212 11.2137L18.6197 11.2122ZM15.4306 8.07844C15.0849 8.07844 14.7631 7.94258 14.5296 7.69773C14.2932 7.45139 14.1719 7.12592 14.1869 6.78105C14.2183 6.07338 14.8215 5.49709 15.5323 5.49709C15.878 5.49709 16.1998 5.63295 16.4333 5.8763C16.6697 6.12264 16.7909 6.4496 16.776 6.79448C16.7445 7.50215 16.1399 8.07844 15.4306 8.07844Z" fill="#113E53"/>
<path d="M35.7285 17.9946L36.3736 10.3027H38.2986L37.6555 17.9946" fill="#113E53"/>
<path d="M37.6368 6.53711C38.3431 6.53711 38.8473 7.03474 38.7922 7.69079C38.737 8.34684 38.1491 8.84447 37.4449 8.84447C36.7406 8.84447 36.2711 8.30013 36.3221 7.69079C36.3732 7.08145 36.9325 6.53711 37.6388 6.53711H37.6368Z" fill="#113E53"/>
<path d="M39.6312 10.3023H41.4602L41.3561 11.5372H41.3888C41.8052 10.7674 42.583 10.1113 43.867 10.1113C45.9369 10.1113 46.5534 11.5697 46.4227 13.1397L46.0165 17.9962H44.0915L44.4181 14.1025C44.4896 13.2535 44.5427 11.8418 43.1954 11.8418C41.9277 11.8418 41.3521 12.7721 41.2663 13.7978L40.9152 17.9962H38.9902L39.6333 10.3043L39.6312 10.3023Z" fill="#113E53"/>
<path d="M53.6069 12.033L55.291 10.3979H52.821L49.6835 13.4914L50.2898 6.24023H48.3627L47.3809 17.9944H49.3058L49.6345 14.0662H49.6651L52.4046 17.9944H54.9542L51.7922 13.796L53.6069 12.031V12.033Z" fill="#113E53"/>
<path d="M73.0367 17.9947H71.2077L71.3118 16.7598H71.2791C70.8627 17.5296 70.085 18.1856 68.801 18.1856C66.731 18.1856 66.1146 16.7273 66.2452 15.1572L66.6514 10.3008H68.5764L68.2498 14.1944C68.1783 15.0435 68.1253 16.4551 69.4726 16.4551C70.7402 16.4551 71.3159 15.5248 71.4016 14.4991L71.7527 10.3008H73.6777L73.0347 17.9927L73.0367 17.9947Z" fill="#113E53"/>
<path d="M76.3137 14.8216C76.3463 15.959 77.1568 16.6476 78.2305 16.6476C79.194 16.6476 79.8574 16.1987 80.3882 15.6056L81.6804 16.6476C80.6883 17.7525 79.5145 18.1851 78.2938 18.1851C75.9667 18.1851 74.2417 16.5663 74.4438 14.1473C74.6459 11.7282 76.6423 10.1094 78.9695 10.1094C81.119 10.1094 82.454 11.6165 82.2295 14.2915L82.1846 14.8196H76.3117L76.3137 14.8216ZM80.3821 13.3795C80.4596 12.2583 79.7799 11.5535 78.5775 11.5535C77.4385 11.5535 76.6709 12.2746 76.4341 13.3795H80.3821Z" fill="#113E53"/>
<path d="M83.7445 10.3023H85.5735L85.4694 11.5372H85.5021C85.9185 10.7674 86.6963 10.1113 87.9803 10.1113C90.0502 10.1113 90.6667 11.5697 90.536 13.1397L90.1298 17.9962H88.2048L88.5314 14.1025C88.6029 13.2535 88.6559 11.8418 87.3087 11.8418C86.041 11.8418 85.4653 12.7721 85.3796 13.7978L85.0285 17.9962H83.1035L83.7465 10.3043L83.7445 10.3023Z" fill="#113E53"/>
<path d="M97.3224 12.6096C96.9121 12.1445 96.4405 11.8398 95.9261 11.8398C94.5135 11.8398 93.5704 12.9447 93.4704 14.1472C93.3703 15.3496 94.1277 16.4545 95.5403 16.4545C96.1343 16.4545 96.7018 16.1986 97.0937 15.7335L98.2614 17.1126C97.4101 17.8987 96.069 18.1871 95.3953 18.1871C93.0682 18.1871 91.3433 16.5683 91.5454 14.1492C91.7475 11.7301 93.7439 10.1113 96.071 10.1113C97.0509 10.1113 98.096 10.4647 98.7656 11.2813L97.3224 12.6116V12.6096Z" fill="#113E53"/>
<path d="M100.657 14.8216C100.69 15.959 101.501 16.6476 102.574 16.6476C103.538 16.6476 104.201 16.1987 104.732 15.6056L106.024 16.6476C105.032 17.7525 103.858 18.1851 102.638 18.1851C100.31 18.1851 98.5855 16.5663 98.7876 14.1473C98.9897 11.7282 100.986 10.1094 103.313 10.1094C105.463 10.1094 106.798 11.6165 106.573 14.2915L106.528 14.8196H100.655L100.657 14.8216ZM104.726 13.3795C104.803 12.2583 104.124 11.5535 102.921 11.5535C101.782 11.5535 101.015 12.2746 100.778 13.3795H104.726Z" fill="#113E53"/>
<path d="M107.979 10.3023H109.904L109.802 11.5209H109.835C110.327 10.6394 111.221 10.1113 112.231 10.1113C112.472 10.1113 112.692 10.1601 112.911 10.223L112.756 12.0815C112.441 12.0023 112.141 11.9373 111.837 11.9373C110.024 11.9373 109.641 13.4607 109.604 13.877L109.259 17.9962H107.334L107.977 10.3043L107.979 10.3023Z" fill="#113E53"/>
<path d="M55.2868 10.3984L53.6027 12.0335H53.0393L53.1761 10.3984H55.2868Z" fill="#113E53"/>
<path d="M60.5078 10.3984L60.3731 12.0335H55.5862L55.872 10.3984H60.5078Z" fill="#113E53"/>
<path d="M66.1051 18.0004C65.6213 18.0999 65.1212 18.0958 64.6415 17.9943C64.2557 17.913 63.8821 17.7709 63.5412 17.5677H63.5392C63.0207 17.261 62.5716 16.8203 62.2593 16.2556C61.9775 15.7397 61.8653 15.1548 61.8653 14.5698L62.2674 9.76416V9.75807C62.2633 8.82375 61.5897 8.06614 60.6548 8.06614C59.7198 8.06614 59.0176 8.76281 58.9543 9.63823L58.2807 17.9943H56.3557L57.1171 9.63823C57.1845 7.75335 58.7441 6.24219 60.6527 6.24219C61.3345 6.24219 61.9735 6.43718 62.5165 6.77028C62.8247 6.96121 63.1003 7.19885 63.335 7.46899C63.4555 7.60913 63.5637 7.75538 63.6596 7.91177C63.9556 8.38706 64.1454 8.93749 64.1842 9.52652C64.1883 9.60573 64.1924 9.68291 64.1924 9.76416L63.7903 14.5718C63.7903 15.5285 64.519 16.1967 65.3172 16.2536C65.4213 16.9483 65.6846 17.5373 66.101 17.9963L66.1072 18.0024L66.1051 18.0004Z" fill="#113E53"/>
<path d="M29.7463 16.1663L30.5873 6.24023H28.5664L27.5723 17.9923H34.425L34.5761 16.1663H29.7463Z" fill="#113E53"/>
</svg>
