<svg width="33" height="32" viewBox="0 0 33 32" fill="none" xmlns="http://www.w3.org/2000/svg">
<path fill-rule="evenodd" clip-rule="evenodd" d="M16.668 32C25.5045 32 32.668 24.8366 32.668 16C32.668 7.16344 25.5045 0 16.668 0C7.83141 0 0.667969 7.16344 0.667969 16C0.667969 24.8366 7.83141 32 16.668 32ZM22.8931 23.0211C23.3538 23.2813 23.9435 23.1599 24.22 22.7261C24.4964 22.2924 24.349 21.7372 23.8883 21.477C19.834 19.1348 14.7846 18.5969 8.90597 19.8634C8.38998 19.9675 8.07669 20.4533 8.18726 20.9391C8.29783 21.4249 8.81383 21.7198 9.32982 21.6157C14.7109 20.4707 19.2627 20.9391 22.8931 23.0211ZM24.4411 19.1521C25.0124 19.4644 25.7495 19.3083 26.0997 18.7704C26.4498 18.2326 26.2655 17.5386 25.7311 17.2263C20.9581 14.4677 13.9922 13.7044 8.38998 15.3005C7.74498 15.474 7.39484 16.0986 7.57913 16.7058C7.76341 17.2957 8.42683 17.6254 9.07183 17.4519C13.9738 16.0465 20.2947 16.7405 24.4411 19.1521ZM8.33469 12.9583C13.0892 11.6051 21.2899 11.8653 26.2655 14.6412C26.9474 15.0403 27.8319 14.8147 28.2189 14.1554C28.6244 13.5135 28.4032 12.6807 27.7214 12.299C22.0086 9.10673 12.9418 8.79444 7.48699 10.3559C6.73142 10.5814 6.28914 11.3448 6.52871 12.0562C6.76828 12.7848 7.57913 13.1839 8.33469 12.9583Z" fill="#1ED760"/>
</svg>
