<svg width="25" height="24" viewBox="0 0 25 24" fill="none" xmlns="http://www.w3.org/2000/svg">
<g clip-path="url(#clip0_2372_54627)">
<path d="M12.2 0C5.57356 0 0.199951 5.37361 0.199951 12C0.199951 18.6264 5.57356 24 12.2 24C18.8263 24 24.2 18.6264 24.2 12C24.2 5.37361 18.8263 0 12.2 0ZM18.2201 9.18155V10.8064C17.4539 10.8067 16.7095 10.6565 16.0074 10.3603C15.556 10.1697 15.1354 9.92414 14.7507 9.62737L14.7622 14.6286C14.7574 15.7548 14.3118 16.8129 13.5054 17.6099C12.8492 18.2587 12.0176 18.6712 11.1163 18.8048C10.9045 18.8361 10.689 18.8522 10.471 18.8522C9.50619 18.8522 8.5902 18.5396 7.8409 17.963C7.6999 17.8544 7.56504 17.7367 7.43665 17.6099C6.56272 16.7461 6.11206 15.5755 6.18795 14.3439C6.24584 13.4065 6.62117 12.5124 7.24686 11.8117C8.07467 10.8844 9.23276 10.3697 10.471 10.3697C10.689 10.3697 10.9045 10.3861 11.1163 10.4175V11.0182V12.6894C10.9155 12.6232 10.701 12.5867 10.4777 12.5867C9.34644 12.5867 8.4312 13.5097 8.44812 14.6418C8.45886 15.3662 8.85453 15.9994 9.43812 16.3484C9.71239 16.5125 10.0279 16.6141 10.3646 16.6326C10.6284 16.647 10.8817 16.6103 11.1163 16.5329C11.9246 16.2659 12.5076 15.5067 12.5076 14.6113L12.5103 11.2622V5.14781H14.7479C14.7501 5.36953 14.7726 5.58586 14.8144 5.79548C14.9833 6.64397 15.4616 7.38009 16.1272 7.88194C16.7076 8.3197 17.4303 8.5792 18.2136 8.5792C18.2142 8.5792 18.2206 8.5792 18.2201 8.57869V9.18155H18.2201Z" fill="black"/>
</g>
<defs>
<clipPath id="clip0_2372_54627">
<rect width="24" height="24" fill="white" transform="translate(0.199951)"/>
</clipPath>
</defs>
</svg>
