<svg width="33" height="24" viewBox="0 0 33 24" fill="none" xmlns="http://www.w3.org/2000/svg">
<mask id="mask0_2372_54123" style="mask-type:luminance" maskUnits="userSpaceOnUse" x="0" y="0" width="33" height="24">
<path d="M0.400024 0H32.4V24H0.400024V0Z" fill="white"/>
</mask>
<g mask="url(#mask0_2372_54123)">
<path fill-rule="evenodd" clip-rule="evenodd" d="M0.400024 0H32.4V24H0.400024V0Z" fill="#F7FCFF"/>
<path fill-rule="evenodd" clip-rule="evenodd" d="M0.400024 14.667V16.667H32.4V14.667H0.400024Z" fill="#E31D1C"/>
<path fill-rule="evenodd" clip-rule="evenodd" d="M0.400024 18.3335V20.3335H32.4V18.3335H0.400024Z" fill="#E31D1C"/>
<path fill-rule="evenodd" clip-rule="evenodd" d="M0.400024 7.3335V9.3335H32.4V7.3335H0.400024Z" fill="#E31D1C"/>
<path fill-rule="evenodd" clip-rule="evenodd" d="M0.400024 22V24H32.4V22H0.400024Z" fill="#E31D1C"/>
<path fill-rule="evenodd" clip-rule="evenodd" d="M0.400024 11V13H32.4V11H0.400024Z" fill="#E31D1C"/>
<path fill-rule="evenodd" clip-rule="evenodd" d="M0.400024 0V2H32.4V0H0.400024Z" fill="#E31D1C"/>
<path fill-rule="evenodd" clip-rule="evenodd" d="M0.400024 3.66699V5.66699H32.4V3.66699H0.400024Z" fill="#E31D1C"/>
<path d="M0.400024 0H20.4V13H0.400024V0Z" fill="#2E42A5"/>
<path fill-rule="evenodd" clip-rule="evenodd" d="M2.12199 2.93871L1.39611 3.44759L1.64117 2.54198L0.99646 1.96807H1.83854L2.12097 1.229L2.45214 1.96807H3.17L2.60596 2.54198L2.82432 3.44759L2.12199 2.93871ZM6.12199 2.93871L5.39611 3.44759L5.64117 2.54198L4.99646 1.96807H5.83854L6.12097 1.229L6.45214 1.96807H7.17L6.60596 2.54198L6.82432 3.44759L6.12199 2.93871ZM9.39611 3.44759L10.122 2.93871L10.8243 3.44759L10.6059 2.54198L11.17 1.96807H10.4521L10.121 1.229L9.83854 1.96807H8.99646L9.64117 2.54198L9.39611 3.44759ZM14.122 2.93871L13.3961 3.44759L13.6412 2.54198L12.9964 1.96807H13.8385L14.121 1.229L14.4521 1.96807H15.17L14.6059 2.54198L14.8243 3.44759L14.122 2.93871ZM1.39611 7.44759L2.12199 6.93871L2.82432 7.44759L2.60596 6.54198L3.17 5.96807H2.45214L2.12097 5.229L1.83854 5.96807H0.99646L1.64117 6.54198L1.39611 7.44759ZM6.12199 6.93871L5.39611 7.44759L5.64117 6.54198L4.99646 5.96807H5.83854L6.12097 5.229L6.45214 5.96807H7.17L6.60596 6.54198L6.82432 7.44759L6.12199 6.93871ZM9.39611 7.44759L10.122 6.93871L10.8243 7.44759L10.6059 6.54198L11.17 5.96807H10.4521L10.121 5.229L9.83854 5.96807H8.99646L9.64117 6.54198L9.39611 7.44759ZM14.122 6.93871L13.3961 7.44759L13.6412 6.54198L12.9964 5.96807H13.8385L14.121 5.229L14.4521 5.96807H15.17L14.6059 6.54198L14.8243 7.44759L14.122 6.93871ZM1.39611 11.4476L2.12199 10.9387L2.82432 11.4476L2.60596 10.542L3.17 9.96807H2.45214L2.12097 9.229L1.83854 9.96807H0.99646L1.64117 10.542L1.39611 11.4476ZM6.12199 10.9387L5.39611 11.4476L5.64117 10.542L4.99646 9.96807H5.83854L6.12097 9.229L6.45214 9.96807H7.17L6.60596 10.542L6.82432 11.4476L6.12199 10.9387ZM9.39611 11.4476L10.122 10.9387L10.8243 11.4476L10.6059 10.542L11.17 9.96807H10.4521L10.121 9.229L9.83854 9.96807H8.99646L9.64117 10.542L9.39611 11.4476ZM14.122 10.9387L13.3961 11.4476L13.6412 10.542L12.9964 9.96807H13.8385L14.121 9.229L14.4521 9.96807H15.17L14.6059 10.542L14.8243 11.4476L14.122 10.9387ZM17.3961 3.44759L18.122 2.93871L18.8243 3.44759L18.6059 2.54198L19.17 1.96807H18.4521L18.121 1.229L17.8385 1.96807H16.9964L17.6412 2.54198L17.3961 3.44759ZM18.122 6.93871L17.3961 7.44759L17.6412 6.54198L16.9964 5.96807H17.8385L18.121 5.229L18.4521 5.96807H19.17L18.6059 6.54198L18.8243 7.44759L18.122 6.93871ZM17.3961 11.4476L18.122 10.9387L18.8243 11.4476L18.6059 10.542L19.17 9.96807H18.4521L18.121 9.229L17.8385 9.96807H16.9964L17.6412 10.542L17.3961 11.4476ZM4.12199 4.93871L3.39611 5.44759L3.64117 4.54198L2.99646 3.96807H3.83854L4.12097 3.229L4.45214 3.96807H5.17L4.60596 4.54198L4.82432 5.44759L4.12199 4.93871ZM7.39611 5.44759L8.12199 4.93871L8.82432 5.44759L8.60596 4.54198L9.17 3.96807H8.45214L8.12097 3.229L7.83854 3.96807H6.99646L7.64117 4.54198L7.39611 5.44759ZM12.122 4.93871L11.3961 5.44759L11.6412 4.54198L10.9964 3.96807H11.8385L12.121 3.229L12.4521 3.96807H13.17L12.6059 4.54198L12.8243 5.44759L12.122 4.93871ZM3.39611 9.44759L4.12199 8.93871L4.82432 9.44759L4.60596 8.54198L5.17 7.96807H4.45214L4.12097 7.229L3.83854 7.96807H2.99646L3.64117 8.54198L3.39611 9.44759ZM8.12199 8.93871L7.39611 9.44759L7.64117 8.54198L6.99646 7.96807H7.83854L8.12097 7.229L8.45214 7.96807H9.17L8.60596 8.54198L8.82432 9.44759L8.12199 8.93871ZM11.3961 9.44759L12.122 8.93871L12.8243 9.44759L12.6059 8.54198L13.17 7.96807H12.4521L12.121 7.229L11.8385 7.96807H10.9964L11.6412 8.54198L11.3961 9.44759ZM16.122 4.93871L15.3961 5.44759L15.6412 4.54198L14.9964 3.96807H15.8385L16.121 3.229L16.4521 3.96807H17.17L16.6059 4.54198L16.8243 5.44759L16.122 4.93871ZM15.3961 9.44759L16.122 8.93871L16.8243 9.44759L16.6059 8.54198L17.17 7.96807H16.4521L16.121 7.229L15.8385 7.96807H14.9964L15.6412 8.54198L15.3961 9.44759Z" fill="#F7FCFF"/>
</g>
</svg>
