<svg width="20" height="22" viewBox="0 0 20 22" fill="none" xmlns="http://www.w3.org/2000/svg">
<path d="M14.4451 0.0332031L13.4233 9.70493L11.6801 1.55078L6.21505 2.70646L7.95733 10.86L0.078125 12.5255L1.4698 19.0388L15.3256 21.9672L18.4943 14.8897L20.0022 0.614433L14.4451 0.0332031ZM10.0669 14.0637C9.78118 14.324 9.40348 14.3 9.00264 14.1673C8.60264 14.0352 8.4248 13.5539 8.57638 12.9721C8.6893 12.5402 9.22085 12.4753 9.48676 12.4708C9.58782 12.4691 9.68718 12.4894 9.77893 12.5306C9.96693 12.6153 10.2854 12.796 10.35 13.0715C10.4431 13.4689 10.3534 13.8026 10.0677 14.0629L10.0669 14.0637ZM14.0782 14.5126C13.8707 14.8711 13.3259 14.9185 12.7898 14.6577C12.4285 14.4815 12.4313 14.0332 12.4708 13.76C12.4918 13.6109 12.5522 13.4702 12.6458 13.3524C12.7748 13.1898 12.9902 12.9778 13.2392 12.9713C13.644 12.9605 13.9923 13.1412 14.1891 13.4681C14.3867 13.7939 14.2879 14.1532 14.0799 14.5126H14.0782Z" fill="#00CCBC"/>
</svg>
