<svg width="24" height="24" viewBox="0 0 24 24" fill="none" xmlns="http://www.w3.org/2000/svg">
<g clip-path="url(#clip0_2372_54618)">
<path d="M12 0C5.37281 0 0 5.37281 0 12C0 18.6272 5.37281 24 12 24C18.6272 24 24 18.6272 24 12C24 5.37281 18.6272 0 12 0Z" fill="black"/>
<path d="M13.3139 10.9138L18.451 4.94238H17.2337L12.7732 10.1273L9.21059 4.94238H5.10156L10.4889 12.7829L5.10156 19.0448H6.31895L11.0294 13.5694L14.7917 19.0448H18.9007L13.3136 10.9138H13.3139ZM6.75758 5.85882H8.62741L17.2342 18.17H15.3644L6.75758 5.85882Z" fill="white"/>
</g>
<defs>
<clipPath id="clip0_2372_54618">
<rect width="24" height="24" fill="white"/>
</clipPath>
</defs>
</svg>
