<svg width="32" height="22" viewBox="0 0 32 22" fill="none" xmlns="http://www.w3.org/2000/svg">
<path d="M0.934766 4.33522C1.07707 2.15856 2.83843 0.452723 5.03115 0.344791C8.20635 0.188498 12.7446 0 16.1641 0C19.5835 0 24.1218 0.188498 27.297 0.344791C29.4897 0.452723 31.2511 2.15856 31.3934 4.33522C31.5297 6.42062 31.6641 8.98662 31.6641 11C31.6641 13.0134 31.5297 15.5794 31.3934 17.6648C31.2511 19.8414 29.4897 21.5473 27.297 21.6552C24.1218 21.8115 19.5835 22 16.1641 22C12.7446 22 8.20635 21.8115 5.03115 21.6552C2.83843 21.5473 1.07707 19.8414 0.934766 17.6648C0.79843 15.5794 0.664062 13.0134 0.664062 11C0.664062 8.98662 0.79843 6.42062 0.934766 4.33522Z" fill="#FC0D1B"/>
<path d="M12.6641 7V15L21.6641 11L12.6641 7Z" fill="white"/>
</svg>
