<svg width="25" height="24" viewBox="0 0 25 24" fill="none" xmlns="http://www.w3.org/2000/svg">
<path d="M12.8999 24C19.5273 24 24.8999 18.6274 24.8999 12C24.8999 5.37258 19.5273 0 12.8999 0C6.27249 0 0.899902 5.37258 0.899902 12C0.899902 18.6274 6.27249 24 12.8999 24Z" fill="#F20000"/>
<path d="M18.6189 9.11375C18.3789 8.36849 17.5847 7.92796 16.8473 7.82533C14.2189 7.54585 11.5683 7.54585 8.93995 7.82533C8.2089 7.92796 7.41469 8.3748 7.17469 9.11375C6.80049 11.0203 6.80049 12.9814 7.17469 14.888C7.42101 15.6316 8.21522 16.0738 8.95259 16.1764C11.5811 16.4543 14.2315 16.4543 16.86 16.1764C17.591 16.0738 18.3852 15.6253 18.6252 14.888C18.9973 12.981 18.9952 11.0199 18.6189 9.11375ZM11.4647 14.299V9.70112L15.2084 12.0001C13.9468 12.7753 12.7215 13.5301 11.4647 14.299Z" fill="white"/>
</svg>
