<svg width="471" height="160" viewBox="0 0 471 160" fill="none" xmlns="http://www.w3.org/2000/svg">
<rect x="202.6" y="100.937" width="166.4" height="57.6" rx="28.8" fill="white" stroke="#B3B3B2" stroke-width="0.6"/>
<path d="M263.501 126.86V132.216C263.501 134.891 261.325 137.068 258.65 137.07C257.655 137.071 256.684 136.764 255.87 136.191C255.032 135.295 254.566 134.114 254.567 132.888C254.567 130.251 256.681 128.101 259.304 128.039V130.104C259.092 130.037 258.872 130.002 258.65 130.002C258.155 130.001 257.673 130.167 257.283 130.473C256.893 130.778 256.617 131.206 256.499 131.687C256.38 132.168 256.427 132.675 256.63 133.127C256.834 133.578 257.183 133.949 257.622 134.178C257.891 134.554 258.271 134.835 258.708 134.984C259.145 135.132 259.617 135.14 260.059 135.007C260.501 134.874 260.89 134.605 261.172 134.24C261.453 133.874 261.613 133.429 261.63 132.968L261.634 122.405H263.563C263.655 122.894 263.844 123.359 264.121 123.772C264.397 124.185 264.755 124.538 265.171 124.809C265.692 125.408 266.392 125.823 267.168 125.99V128.039C265.852 128.04 264.57 127.628 263.501 126.86Z" fill="#000008"/>
<path d="M278.782 125.999H270.545L270.547 128.359L273.226 128.354V137.066H275.89V128.355H278.026L278.782 125.999Z" fill="#000008"/>
<path d="M292.272 125.999H300.698L299.942 128.355H297.619V137.066H294.953V128.354L292.274 128.359L292.272 125.999Z" fill="#000008"/>
<path d="M281.924 129.519H279.283L279.299 137.066H281.921L281.924 129.519Z" fill="#000008"/>
<path d="M282.971 125.968H285.608V131.123L288.222 128.56H291.371L288.064 131.764L291.766 137.064H288.86L286.39 133.39L285.607 134.15V137.066H282.969L282.971 125.968Z" fill="#000008"/>
<path d="M313.555 125.968H310.917L310.915 137.064H313.552V134.149L314.335 133.389L316.807 137.064H319.713L316.011 131.764L319.317 128.56H316.168L313.555 131.123V125.968Z" fill="#000008"/>
<path d="M280.602 128.657C281.336 128.657 281.932 128.061 281.932 127.327C281.932 126.593 281.336 125.998 280.602 125.998C279.868 125.998 279.273 126.593 279.273 127.327C279.273 128.061 279.868 128.657 280.602 128.657Z" fill="#000008"/>
<path fill-rule="evenodd" clip-rule="evenodd" d="M302.326 128.792C303.069 128.295 303.943 128.03 304.836 128.03C306.034 128.03 307.183 128.506 308.03 129.353C308.878 130.2 309.354 131.349 309.354 132.547C309.354 133.44 309.089 134.314 308.593 135.057C308.097 135.8 307.391 136.379 306.566 136.721C305.74 137.063 304.832 137.153 303.956 136.979C303.079 136.805 302.274 136.374 301.642 135.743C301.01 135.111 300.58 134.306 300.406 133.43C300.231 132.553 300.321 131.645 300.663 130.819C301.004 129.994 301.583 129.288 302.326 128.792ZM303.616 134.374C303.977 134.615 304.402 134.744 304.836 134.744C305.125 134.744 305.41 134.687 305.677 134.577C305.944 134.466 306.186 134.305 306.39 134.1C306.594 133.896 306.755 133.654 306.866 133.388C306.976 133.121 307.033 132.835 307.032 132.547C307.032 132.113 306.903 131.688 306.662 131.327C306.42 130.966 306.077 130.685 305.676 130.519C305.275 130.353 304.833 130.309 304.407 130.394C303.981 130.479 303.59 130.688 303.283 130.995C302.976 131.303 302.767 131.694 302.682 132.12C302.598 132.546 302.641 132.987 302.807 133.389C302.974 133.79 303.255 134.133 303.616 134.374Z" fill="#000008"/>
<path d="M259.419 135.101C259.991 135.1 260.541 134.877 260.954 134.48C261.366 134.082 261.608 133.54 261.63 132.968L261.634 122.405H263.563C263.522 122.184 263.502 121.961 263.502 121.736H260.867L260.862 132.298C260.849 132.672 260.741 133.036 260.548 133.357C260.356 133.678 260.085 133.945 259.761 134.132C259.437 134.32 259.071 134.422 258.697 134.43C258.323 134.438 257.953 134.35 257.622 134.176C257.827 134.461 258.096 134.694 258.409 134.855C258.721 135.016 259.067 135.1 259.419 135.101Z" fill="#25F4EE"/>
<path d="M259.304 128.036V127.412C259.087 127.381 258.869 127.366 258.65 127.364C255.975 127.364 253.799 129.541 253.799 132.216C253.799 132.996 253.988 133.764 254.348 134.456C254.709 135.147 255.231 135.741 255.87 136.188C255.032 135.292 254.566 134.111 254.567 132.885C254.567 130.248 256.682 128.097 259.304 128.036Z" fill="#25F4EE"/>
<path d="M267.168 125.99L267.168 125.403C266.459 125.404 265.765 125.197 265.171 124.809C265.692 125.408 266.392 125.823 267.168 125.99Z" fill="#25F4EE"/>
<path d="M301.562 129.481C300.79 130.315 300.361 131.41 300.36 132.547C300.361 133.684 300.79 134.779 301.562 135.614C302.334 136.448 303.392 136.961 304.526 137.049C304.409 137.059 304.249 137.065 304.13 137.065C302.932 137.065 301.783 136.589 300.936 135.742C300.089 134.894 299.613 133.745 299.613 132.547C299.613 131.349 300.089 130.2 300.936 129.353C301.783 128.506 302.932 128.03 304.13 128.03C304.249 128.03 304.409 128.036 304.526 128.045C303.392 128.133 302.334 128.646 301.562 129.481Z" fill="#25F4EE"/>
<path d="M265.171 124.809C264.59 124.143 264.269 123.289 264.27 122.405H263.563C263.655 122.894 263.844 123.359 264.121 123.772C264.397 124.185 264.755 124.538 265.171 124.809Z" fill="#FE2C55"/>
<path d="M258.65 130C258.155 130 257.674 130.166 257.284 130.472C256.894 130.777 256.617 131.205 256.499 131.686C256.381 132.167 256.427 132.674 256.631 133.126C256.834 133.577 257.184 133.948 257.623 134.177C257.348 133.802 257.2 133.349 257.198 132.884C257.196 132.418 257.342 131.965 257.613 131.587C257.885 131.209 258.269 130.927 258.711 130.781C259.152 130.634 259.629 130.631 260.072 130.772V128.081C259.856 128.05 259.637 128.035 259.419 128.034C259.396 128.034 259.373 128.034 259.35 128.035C259.335 128.036 259.319 128.036 259.304 128.036L259.304 130.101C259.093 130.035 258.872 130.001 258.65 130Z" fill="#FE2C55"/>
<path d="M267.168 125.99V128.039C265.852 128.04 264.57 127.628 263.501 126.86V132.216C263.501 134.891 261.325 137.067 258.65 137.067C257.655 137.068 256.684 136.761 255.87 136.188C256.323 136.677 256.872 137.066 257.483 137.332C258.093 137.599 258.752 137.736 259.418 137.736C262.093 137.736 264.27 135.56 264.27 132.885V127.527C265.338 128.295 266.621 128.708 267.937 128.706V126.072C267.678 126.072 267.421 126.045 267.168 125.99Z" fill="#FE2C55"/>
<path d="M305.151 128.046C305.269 128.037 305.43 128.03 305.55 128.03C306.748 128.03 307.897 128.506 308.744 129.354C309.592 130.201 310.067 131.35 310.067 132.548C310.067 133.746 309.592 134.895 308.744 135.742C307.897 136.59 306.748 137.066 305.55 137.066C305.43 137.066 305.269 137.059 305.151 137.05C306.284 136.961 307.342 136.448 308.113 135.614C308.885 134.779 309.313 133.684 309.313 132.548C309.313 131.412 308.885 130.317 308.113 129.482C307.342 128.648 306.284 128.135 305.151 128.046Z" fill="#FE2C55"/>
<rect width="132.361" height="45.8174" rx="22.9087" transform="matrix(0.857519 0.514452 -0.514453 0.857518 252.229 0)" fill="white" stroke="#B3B3B2" stroke-width="0.477265"/>
<g clip-path="url(#clip0_2892_20323)">
<path d="M317.282 70.394C317.085 70.2788 316.851 70.246 316.631 70.3028C316.411 70.3596 316.222 70.5014 316.106 70.6971C315.99 70.8928 315.956 71.1265 316.011 71.3471C316.067 71.5677 316.208 71.7573 316.403 71.8744C316.598 71.9915 316.832 72.0265 317.053 71.9718C317.274 71.9172 317.464 71.7772 317.582 71.5827C317.7 71.3881 317.736 71.1547 317.682 70.9335C317.629 70.7124 317.49 70.5214 317.296 70.4025L317.282 70.394ZM316.447 71.7856C316.317 71.711 316.213 71.5997 316.147 71.4658C316.081 71.3319 316.056 71.1814 316.076 71.0334C316.095 70.8855 316.158 70.7466 316.257 70.6344C316.355 70.5221 316.485 70.4416 316.629 70.403C316.773 70.3644 316.925 70.3694 317.067 70.4174C317.208 70.4654 317.332 70.5542 317.423 70.6727C317.514 70.7911 317.567 70.9338 317.577 71.0828C317.587 71.2317 317.552 71.3802 317.478 71.5095L317.471 71.5204C317.374 71.6904 317.213 71.8149 317.024 71.8665C316.835 71.9181 316.634 71.8925 316.464 71.7954L316.447 71.7854M314.569 68.4926L312.965 67.5304L314.472 65.0187C314.832 64.4198 315.283 63.6424 314.46 63.1484C313.625 62.6472 313.105 63.2231 312.701 63.8969L311.168 66.452L309.564 65.4898L312.663 60.3248L314.203 61.2485L313.779 61.9544L313.801 61.9673C314.113 61.7963 314.466 61.7131 314.821 61.7267C315.177 61.7403 315.522 61.85 315.82 62.0443C317.446 63.0196 317.104 64.2686 316.27 65.6596L314.569 68.4926ZM311.277 58.5331C311.093 58.4227 310.946 58.2602 310.854 58.0661C310.762 57.8721 310.73 57.6552 310.762 57.4428C310.793 57.2305 310.887 57.0323 311.031 56.8733C311.175 56.7142 311.363 56.6015 311.572 56.5494C311.78 56.4973 311.999 56.5081 312.201 56.5805C312.403 56.6529 312.579 56.7835 312.707 56.956C312.835 57.1284 312.909 57.3349 312.919 57.5493C312.93 57.7637 312.876 57.9764 312.766 58.1605C312.693 58.2828 312.596 58.3894 312.482 58.4742C312.367 58.5591 312.237 58.6206 312.099 58.6552C311.96 58.6898 311.817 58.6968 311.676 58.6759C311.535 58.655 311.399 58.6064 311.277 58.5331ZM308.557 64.8854L306.951 63.9222L310.05 58.7571L311.655 59.7202L308.557 64.8854ZM320.901 59.7503L311.678 54.2167C311.47 54.0888 311.22 54.0486 310.982 54.105C310.744 54.1615 310.539 54.3099 310.411 54.5177L304.854 63.7796C304.731 63.9906 304.697 64.2418 304.759 64.4781C304.821 64.7144 304.974 64.9164 305.185 65.0399L314.408 70.5734C314.617 70.702 314.867 70.7426 315.106 70.6863C315.344 70.6301 315.55 70.4816 315.679 70.2735L321.236 61.0109C321.358 60.7993 321.392 60.5477 321.33 60.3112C321.267 60.0747 321.113 59.8727 320.902 59.7496M303.332 56.4222C302.53 55.9411 301.728 56.1879 301.26 56.9681C300.792 57.7483 300.951 58.5727 301.753 59.0539C302.555 59.5351 303.358 59.2898 303.827 58.5083C304.296 57.7267 304.135 56.9039 303.332 56.4222ZM303.744 61.9939L302.267 61.1081L302.678 60.4231L302.656 60.41C302.322 60.548 301.96 60.6069 301.598 60.5821C301.237 60.5572 300.887 60.4493 300.574 60.2667C299.033 59.3422 298.685 57.6211 299.629 56.0483C300.495 54.6039 302.189 53.8165 303.666 54.7024C304.33 55.1006 304.841 55.6542 304.902 56.3757L304.923 56.3883L306.71 53.4111L308.315 54.3742L303.744 61.9939ZM297.945 54.1873C298.026 54.059 298.08 53.9156 298.104 53.7657C298.128 53.6159 298.122 53.4627 298.085 53.3155C298.048 53.1682 297.981 53.03 297.89 52.9092C297.798 52.7884 297.682 52.6874 297.55 52.6125C297.281 52.427 296.949 52.3549 296.626 52.4117C296.304 52.4686 296.017 52.6499 295.827 52.9166L297.945 54.1873ZM297.93 57.2911C297.47 57.4544 296.979 57.5133 296.493 57.4634C296.007 57.4136 295.538 57.2563 295.12 57.0029C293.517 56.0408 292.875 54.1999 293.869 52.5421C294.864 50.8843 296.79 50.5845 298.394 51.5468C299.893 52.4461 300.191 54.0793 299.196 55.7379L298.895 56.2408L295.172 54.0075C295.047 54.3205 295.04 54.6681 295.151 54.9861C295.262 55.3041 295.485 55.5713 295.778 55.7382C296.007 55.8738 296.266 55.9499 296.532 55.9595C296.798 55.9692 297.062 55.9122 297.301 55.7937L297.93 57.2911ZM284.548 43.456L286.088 44.38L285.665 45.0858L285.687 45.099C285.999 44.9277 286.351 44.8444 286.707 44.8579C287.063 44.8714 287.408 44.9813 287.706 45.1757C289.332 46.1514 288.99 47.4011 288.156 48.7912L286.456 51.6237L284.853 50.6615L286.359 48.1503C286.719 47.5509 287.17 46.7738 286.346 46.2792C285.512 45.7791 284.992 46.3547 284.588 47.0283L283.055 49.5824L281.452 48.6202L284.548 43.456ZM291.841 44.4917L293.445 45.4539L290.712 50.0089L293.791 48.9972L295.757 50.1769L292.218 51.3052L292.612 55.3198L290.596 54.1105L290.425 50.536L290.404 50.5234L288.873 53.0761L287.269 52.1139L291.841 44.4917ZM282.055 41.9598L283.659 42.922L280.561 48.087L278.957 47.1248L282.055 41.9598ZM284.398 39.8731C284.582 39.9835 284.729 40.146 284.82 40.3401C284.912 40.5341 284.944 40.7509 284.913 40.9632C284.881 41.1754 284.787 41.3735 284.643 41.5324C284.499 41.6913 284.311 41.8039 284.103 41.856C283.894 41.908 283.675 41.8971 283.473 41.8248C283.271 41.7524 283.095 41.6217 282.968 41.4493C282.84 41.2769 282.766 41.0705 282.756 40.8562C282.745 40.6418 282.799 40.4292 282.909 40.2452C282.982 40.123 283.079 40.0165 283.193 39.9316C283.308 39.8468 283.438 39.7853 283.576 39.7508C283.715 39.7162 283.858 39.7093 283.999 39.7302C284.14 39.7512 284.276 39.7998 284.398 39.8731ZM278.029 36.2072L279.699 37.2088L276.051 43.2899L279.141 45.1441L278.217 46.6848L273.457 43.829L278.029 36.2072ZM316.928 71.2491C316.955 71.2659 316.986 71.2768 317.017 71.2813C317.049 71.2858 317.081 71.2838 317.112 71.2752C317.143 71.2667 317.172 71.252 317.197 71.2319C317.222 71.2118 317.242 71.1868 317.257 71.1584C317.347 71.008 317.3 70.8818 317.114 70.7701L316.813 70.5897L316.341 71.3769L316.454 71.4448L316.66 71.1016L316.799 71.185L316.799 71.1911L316.812 71.6595L316.933 71.732L316.911 71.242L316.928 71.2491ZM316.844 71.0918L316.713 71.0131L316.873 70.747L317.039 70.8467C317.125 70.8982 317.214 70.971 317.147 71.0834C317.069 71.2127 316.964 71.1636 316.844 71.0914" fill="#2867B2"/>
</g>
<rect x="173" y="63.6553" width="123.2" height="49.28" rx="24.64" fill="white" stroke="#B3B3B2" stroke-width="0.513334"/>
<path d="M245.181 94.2163C241.307 92.3409 240.69 89.4454 240.662 89.2306C240.629 88.9704 240.591 88.7659 240.878 88.5013C241.155 88.2456 242.383 87.4856 242.724 87.2478C243.287 86.8541 243.535 86.461 243.352 85.9778C243.224 85.6435 242.913 85.5176 242.585 85.5176C242.481 85.5179 242.378 85.5295 242.277 85.5521C241.659 85.6863 241.058 85.9963 240.71 86.08C240.668 86.0908 240.625 86.0966 240.582 86.0973C240.397 86.0973 240.327 86.0148 240.344 85.7918C240.388 85.1155 240.48 83.7956 240.373 82.5626C240.227 80.8662 239.68 80.0257 239.031 79.2823C238.717 78.9218 237.26 77.373 234.447 77.373C231.635 77.373 230.179 78.9218 229.868 79.2778C229.217 80.0212 228.67 80.8617 228.525 82.5581C228.419 83.7911 228.514 85.1104 228.554 85.7873C228.567 85.9995 228.502 86.0928 228.316 86.0928C228.273 86.0921 228.23 86.0863 228.188 86.0756C227.841 85.9918 227.241 85.6818 226.622 85.5476C226.521 85.525 226.418 85.5134 226.314 85.5131C225.985 85.5131 225.675 85.6409 225.547 85.9733C225.364 86.4565 225.611 86.8496 226.176 87.2434C226.517 87.4811 227.745 88.2405 228.022 88.4968C228.308 88.7614 228.271 88.966 228.238 89.2261C228.21 89.4441 227.592 92.3396 223.719 94.2118C223.492 94.3217 223.106 94.5544 223.786 94.9302C224.855 95.5208 225.566 95.4576 226.119 95.8136C226.589 96.1159 226.311 96.7679 226.652 97.0031C227.072 97.2927 228.311 96.9826 229.912 97.5113C231.255 97.9536 232.07 99.2032 234.451 99.2032C236.831 99.2032 237.67 97.9478 238.989 97.5113C240.587 96.9826 241.829 97.2927 242.249 97.0031C242.589 96.7679 242.313 96.1159 242.782 95.8136C243.335 95.4576 244.045 95.5208 245.115 94.9302C245.794 94.5589 245.408 94.3262 245.181 94.2163Z" fill="white"/>
<path d="M246.866 93.9958C246.692 93.5228 246.361 93.2697 245.983 93.0601C245.912 93.0185 245.847 92.9853 245.792 92.9597C245.679 92.9015 245.564 92.8453 245.45 92.7859C244.274 92.1626 243.356 91.3764 242.72 90.4445C242.539 90.1822 242.382 89.904 242.251 89.6136C242.197 89.4582 242.199 89.37 242.238 89.2895C242.277 89.2275 242.328 89.1741 242.389 89.1329C242.591 88.9993 242.799 88.8638 242.94 88.7724C243.192 88.6094 243.392 88.4803 243.52 88.3889C244.003 88.0514 244.34 87.6928 244.551 87.292C244.698 87.0152 244.784 86.7098 244.803 86.3968C244.821 86.0838 244.772 85.7704 244.659 85.478C244.339 84.6369 243.545 84.1146 242.582 84.1146C242.379 84.1145 242.177 84.1359 241.978 84.1786C241.925 84.1901 241.872 84.2022 241.82 84.2156C241.829 83.6404 241.817 83.0331 241.765 82.4355C241.584 80.3345 240.848 79.2332 240.081 78.3549C239.59 77.8046 239.011 77.339 238.369 76.9769C237.205 76.3121 235.885 75.9746 234.446 75.9746C233.007 75.9746 231.694 76.3121 230.529 76.9769C229.884 77.3391 229.305 77.8056 228.813 78.3575C228.046 79.2357 227.31 80.339 227.129 82.4381C227.078 83.0357 227.065 83.6461 227.073 84.2182C227.021 84.2048 226.969 84.1926 226.916 84.1811C226.717 84.1384 226.515 84.117 226.312 84.1172C225.349 84.1172 224.553 84.6394 224.234 85.4806C224.121 85.7731 224.071 86.0867 224.089 86.4C224.108 86.7134 224.193 87.0191 224.34 87.2965C224.551 87.6973 224.889 88.0559 225.372 88.3934C225.499 88.4829 225.699 88.612 225.951 88.7769C226.087 88.8651 226.286 88.9942 226.481 89.1233C226.549 89.1674 226.607 89.2256 226.651 89.294C226.692 89.3777 226.693 89.4678 226.633 89.634C226.504 89.9184 226.349 90.1907 226.172 90.4477C225.549 91.3586 224.658 92.1307 223.52 92.7488C222.918 93.0684 222.291 93.2819 222.027 94.0009C221.827 94.5436 221.958 95.1611 222.465 95.6814C222.651 95.8756 222.866 96.0389 223.104 96.1652C223.598 96.4367 224.123 96.6468 224.668 96.791C224.78 96.82 224.887 96.8678 224.984 96.9323C225.168 97.094 225.142 97.3375 225.388 97.6942C225.512 97.8785 225.669 98.0381 225.851 98.1646C226.367 98.5213 226.948 98.5436 227.563 98.5673C228.118 98.5884 228.748 98.6127 229.467 98.8498C229.765 98.9483 230.074 99.1387 230.433 99.3612C231.294 99.8904 232.472 100.615 234.445 100.615C236.417 100.615 237.604 99.8866 238.472 99.3554C238.828 99.1368 239.135 98.9482 239.425 98.8524C240.144 98.6146 240.773 98.5909 241.329 98.5699C241.944 98.5462 242.524 98.5238 243.041 98.1672C243.256 98.0166 243.436 97.8202 243.567 97.5919C243.744 97.2908 243.74 97.0805 243.906 96.9335C243.997 96.8721 244.097 96.8263 244.203 96.798C244.755 96.6534 245.287 96.4413 245.788 96.1665C246.04 96.0312 246.267 95.8535 246.459 95.6411L246.465 95.6334C246.941 95.1246 247.06 94.5251 246.866 93.9958ZM245.112 94.938C244.043 95.5286 243.332 95.4653 242.779 95.8214C242.309 96.1237 242.587 96.7757 242.246 97.0109C241.827 97.3004 240.587 96.9904 238.986 97.519C237.666 97.9556 236.823 99.211 234.448 99.211C232.073 99.211 231.25 97.9581 229.908 97.5158C228.31 96.9872 227.068 97.2972 226.648 97.0077C226.307 96.7725 226.584 96.1205 226.115 95.8182C225.561 95.4621 224.851 95.5254 223.782 94.938C223.101 94.5622 223.487 94.3295 223.714 94.2195C227.588 92.3442 228.206 89.4487 228.233 89.2339C228.266 88.9737 228.304 88.7692 228.017 88.5046C227.74 88.2489 226.513 87.4889 226.172 87.2511C225.608 86.8574 225.36 86.4643 225.543 85.9811C225.671 85.6468 225.983 85.5209 226.31 85.5209C226.413 85.5212 226.516 85.5328 226.617 85.5554C227.236 85.6896 227.837 85.9996 228.184 86.0833C228.226 86.0941 228.269 86.0999 228.312 86.1006C228.497 86.1006 228.562 86.0073 228.55 85.7951C228.51 85.1182 228.414 83.7989 228.521 82.5659C228.667 80.8695 229.214 80.029 229.863 79.2856C230.175 78.9283 231.641 77.3795 234.444 77.3795C237.246 77.3795 238.716 78.9219 239.028 79.2779C239.678 80.0213 240.225 80.8618 240.37 82.5582C240.477 83.7912 240.385 85.1111 240.341 85.7874C240.327 86.0105 240.394 86.0929 240.579 86.0929C240.622 86.0922 240.665 86.0864 240.707 86.0757C241.055 85.9919 241.655 85.6819 242.274 85.5477C242.375 85.5251 242.478 85.5135 242.582 85.5132C242.911 85.5132 243.221 85.641 243.349 85.9734C243.532 86.4566 243.285 86.8497 242.72 87.2435C242.38 87.4812 241.152 88.2406 240.875 88.4969C240.588 88.7615 240.626 88.9661 240.659 89.2262C240.686 89.4442 241.304 92.3397 245.178 94.2119C245.407 94.3263 245.793 94.559 245.112 94.938Z" fill="#000008"/>
<rect x="1" y="112.637" width="133.12" height="46.08" rx="23.04" fill="white" stroke="#B3B3B2" stroke-width="0.48"/>
<path d="M87.0033 134.347C86.6742 136.018 86.424 138.059 86.2924 138.901H86.2003C86.095 138.032 85.8448 136.005 85.5025 134.36L84.6603 130.266H82.0933V141.31H83.6862V132.206L83.844 133.057L85.4631 141.31H87.0559L88.6486 133.057L88.8197 132.201L88.8198 141.31H90.4125V130.266H87.8194L87.0033 134.347Z" fill="#242729"/>
<path d="M94.7172 139.651C94.5724 139.954 94.2565 140.165 93.9406 140.165C93.5719 140.165 93.4271 139.875 93.4271 139.164V133.241H91.6107V139.27C91.6107 140.757 92.0977 141.442 93.1771 141.442C93.9142 141.442 94.5065 141.113 94.9145 140.323H94.954L95.1119 141.31H96.5336V133.241H94.7172V139.651Z" fill="#242729"/>
<path d="M100.048 136.427C99.4559 135.992 99.0874 135.702 99.0874 135.071C99.0874 134.623 99.298 134.373 99.7981 134.373C100.312 134.373 100.483 134.728 100.496 135.94L102.023 135.874C102.141 133.912 101.496 133.096 99.8245 133.096C98.2713 133.096 97.5078 133.794 97.5078 135.229C97.5078 136.532 98.1397 137.124 99.1663 137.901C100.048 138.585 100.562 138.967 100.562 139.52C100.562 139.941 100.298 140.231 99.8377 140.231C99.298 140.231 98.9821 139.717 99.061 138.822L97.521 138.849C97.2839 140.52 97.9554 141.494 99.7456 141.494C101.312 141.494 102.128 140.77 102.128 139.322C102.128 138.006 101.47 137.48 100.048 136.427Z" fill="#242729"/>
<path d="M104.866 133.241H103.129V141.31H104.866V133.241Z" fill="#242729"/>
<path d="M104.011 130.056C103.339 130.056 103.023 130.306 103.023 131.174C103.023 132.07 103.339 132.293 104.011 132.293C104.695 132.293 104.998 132.07 104.998 131.174C104.998 130.345 104.695 130.056 104.011 130.056Z" fill="#242729"/>
<path d="M110.711 138.401L109.118 138.322C109.118 139.744 108.96 140.204 108.42 140.204C107.881 140.204 107.788 139.691 107.788 138.019V136.453C107.788 134.834 107.894 134.32 108.433 134.32C108.934 134.32 109.065 134.807 109.065 136.308L110.645 136.203C110.75 134.952 110.592 134.097 110.105 133.61C109.75 133.254 109.21 133.083 108.46 133.083C106.696 133.083 105.972 134.031 105.972 136.69V137.822C105.972 140.56 106.591 141.442 108.394 141.442C109.157 141.442 109.684 141.284 110.039 140.942C110.553 140.468 110.75 139.651 110.711 138.401Z" fill="#242729"/>
<path d="M50.7394 139.81C50.8402 139.547 50.8908 139.117 50.8908 138.52V136.005C50.8908 135.426 50.8402 135.002 50.7394 134.735C50.6383 134.467 50.4606 134.333 50.2062 134.333C49.9603 134.333 49.787 134.467 49.6862 134.735C49.5852 135.002 49.5349 135.426 49.5349 136.005V138.52C49.5349 139.117 49.5829 139.547 49.6796 139.81C49.7761 140.073 49.9515 140.205 50.2062 140.205C50.4606 140.205 50.6383 140.073 50.7394 139.81ZM48.6988 141.074C48.3344 140.828 48.0755 140.446 47.9221 139.928C47.7683 139.41 47.6917 138.722 47.6917 137.861V136.69C47.6917 135.821 47.7792 135.123 47.9549 134.596C48.1305 134.07 48.4046 133.686 48.7777 133.444C49.1506 133.203 49.64 133.082 50.2458 133.082C50.8424 133.082 51.3208 133.205 51.6806 133.451C52.0405 133.697 52.3038 134.081 52.4706 134.603C52.6373 135.125 52.7208 135.821 52.7208 136.69V137.861C52.7208 138.722 52.6396 139.413 52.4771 139.935C52.3147 140.457 52.0514 140.839 51.6873 141.08C51.3229 141.321 50.8293 141.442 50.2062 141.442C49.5655 141.442 49.0629 141.319 48.6988 141.074Z" fill="#242729"/>
<path d="M76.8913 134.484C76.7994 134.598 76.7378 134.785 76.7072 135.043C76.676 135.302 76.661 135.695 76.661 136.222V136.801H77.9906V136.222C77.9906 135.704 77.973 135.311 77.9381 135.043C77.9028 134.776 77.8394 134.587 77.7472 134.477C77.655 134.368 77.5122 134.313 77.3194 134.313C77.126 134.313 76.9836 134.37 76.8913 134.484ZM76.661 137.88V138.289C76.661 138.807 76.676 139.195 76.7072 139.454C76.7378 139.713 76.8013 139.901 76.898 140.02C76.9945 140.138 77.1434 140.198 77.3456 140.198C77.6174 140.198 77.8042 140.092 77.9051 139.882C78.0059 139.671 78.0607 139.32 78.0697 138.828L79.6365 138.92C79.6451 138.991 79.6495 139.087 79.6495 139.21C79.6495 139.956 79.4454 140.513 79.0374 140.882C78.6294 141.251 78.0519 141.435 77.3062 141.435C76.4109 141.435 75.7833 141.154 75.4234 140.593C75.0634 140.031 74.8836 139.162 74.8836 137.986V136.577C74.8836 135.366 75.0701 134.482 75.4433 133.924C75.8163 133.367 76.4547 133.088 77.3587 133.088C77.9819 133.088 78.4601 133.202 78.7938 133.431C79.1272 133.659 79.3619 134.014 79.4981 134.497C79.6342 134.98 79.7022 135.647 79.7022 136.498V137.88H76.661Z" fill="#242729"/>
<path d="M44.2749 137.729L42.2079 130.265H44.0115L44.7356 133.648C44.92 134.482 45.0559 135.193 45.1438 135.781H45.1964C45.2578 135.36 45.394 134.653 45.6046 133.661L46.355 130.265H48.1587L46.0653 137.729V141.311H44.2749V137.729Z" fill="#242729"/>
<path d="M58.587 133.24V141.31H57.165L57.0071 140.323H56.9676C56.5812 141.069 56.002 141.442 55.2299 141.442C54.6943 141.442 54.2994 141.267 54.0449 140.916C53.7903 140.565 53.6632 140.016 53.6632 139.27V133.24H55.4799V139.165C55.4799 139.525 55.5194 139.781 55.5984 139.935C55.6774 140.089 55.8091 140.165 55.9934 140.165C56.1514 140.165 56.3028 140.117 56.4476 140.02C56.5925 139.924 56.6999 139.801 56.7702 139.652V133.24H58.587Z" fill="#242729"/>
<path d="M67.9062 133.24V141.31H66.4842L66.3262 140.323H66.2868C65.9004 141.069 65.3212 141.442 64.5489 141.442C64.0135 141.442 63.6186 141.267 63.3641 140.916C63.1094 140.565 62.9824 140.016 62.9824 139.27V133.24H64.7991V139.165C64.7991 139.525 64.8386 139.781 64.9175 139.935C64.9965 140.089 65.1282 140.165 65.3125 140.165C65.4706 140.165 65.6219 140.117 65.7666 140.02C65.9116 139.924 66.0191 139.801 66.0894 139.652V133.24H67.9062Z" fill="#242729"/>
<path d="M63.5237 131.726H61.7201V141.31H59.9428V131.726H58.1391V130.265H63.5237V131.726Z" fill="#242729"/>
<path d="M72.2536 137.822C72.2536 138.41 72.2294 138.871 72.1812 139.204C72.1329 139.538 72.0517 139.775 71.9377 139.916C71.8235 140.056 71.6699 140.126 71.477 140.126C71.3276 140.126 71.1894 140.091 71.0623 140.021C70.935 139.951 70.8318 139.845 70.7529 139.705V135.123C70.8141 134.904 70.9194 134.724 71.0689 134.584C71.2179 134.443 71.3802 134.373 71.5559 134.373C71.7402 134.373 71.8829 134.445 71.9838 134.59C72.0846 134.735 72.155 134.979 72.1944 135.321C72.2339 135.663 72.2536 136.15 72.2536 136.782V137.822ZM73.9191 134.53C73.8093 134.021 73.6315 133.653 73.3859 133.424C73.1402 133.196 72.8021 133.082 72.3721 133.082C72.0385 133.082 71.727 133.177 71.4374 133.365C71.1477 133.554 70.9241 133.802 70.7661 134.109H70.7527L70.7529 129.857H69.0018V141.311H70.5026L70.687 140.547H70.7265C70.8668 140.819 71.0774 141.034 71.3585 141.192C71.6391 141.35 71.9509 141.429 72.2932 141.429C72.9073 141.429 73.3596 141.146 73.6493 140.58C73.9388 140.014 74.0836 139.13 74.0836 137.927V136.65C74.0836 135.746 74.0288 135.039 73.9191 134.53Z" fill="#242729"/>
<path d="M32.7165 143.673C37.1336 143.673 40.7144 140.093 40.7144 135.675C40.7144 131.258 37.1336 127.678 32.7165 127.678C28.2994 127.678 24.7188 131.258 24.7188 135.675C24.7188 140.093 28.2994 143.673 32.7165 143.673Z" fill="#F62B1E"/>
<path d="M32.7165 130.818C30.0342 130.818 27.8594 132.993 27.8594 135.675C27.8594 138.358 30.0342 140.533 32.7165 140.533C35.3988 140.533 37.5736 138.358 37.5736 135.675C37.5736 132.993 35.3988 130.818 32.7165 130.818ZM32.7165 131.464C35.0389 131.464 36.9282 133.353 36.9282 135.675C36.9282 137.998 35.0389 139.887 32.7165 139.887C30.3941 139.887 28.5048 137.998 28.5048 135.675C28.5048 133.353 30.3941 131.464 32.7165 131.464Z" fill="white"/>
<path d="M31.1713 138.039L35.2611 135.675L31.1713 133.312V138.039Z" fill="white"/>
<rect x="362.6" y="28.6367" width="78.4001" height="38.4" rx="6.4" fill="white" fill-opacity="0.4"/>
<path d="M380.126 54.2363V44.0283L377.958 45.3323V44.0123L380.126 42.7163H381.318V54.2363H380.126ZM387.864 54.4763C387.144 54.4763 386.507 54.3323 385.952 54.0443C385.403 53.7563 384.971 53.3537 384.656 52.8363C384.347 52.3137 384.192 51.703 384.192 51.0043C384.192 50.2897 384.366 49.655 384.712 49.1003C385.059 48.5403 385.587 48.1163 386.296 47.8283L386.28 48.2923C385.688 48.0737 385.238 47.7163 384.928 47.2203C384.619 46.7243 384.464 46.175 384.464 45.5723C384.464 44.9323 384.611 44.383 384.904 43.9243C385.198 43.4603 385.598 43.103 386.104 42.8523C386.616 42.6017 387.203 42.4763 387.864 42.4763C388.526 42.4763 389.112 42.6017 389.624 42.8523C390.136 43.103 390.539 43.4603 390.832 43.9243C391.126 44.383 391.272 44.9323 391.272 45.5723C391.272 46.175 391.123 46.7217 390.824 47.2123C390.531 47.703 390.08 48.063 389.472 48.2923L389.432 47.8283C390.142 48.111 390.672 48.5323 391.024 49.0923C391.382 49.6523 391.56 50.2897 391.56 51.0043C391.56 51.703 391.403 52.3137 391.088 52.8363C390.774 53.3537 390.339 53.7563 389.784 54.0443C389.23 54.3323 388.59 54.4763 387.864 54.4763ZM387.864 53.3483C388.59 53.3483 389.179 53.1483 389.632 52.7483C390.086 52.343 390.312 51.7617 390.312 51.0043C390.312 50.2363 390.088 49.655 389.64 49.2603C389.192 48.8603 388.6 48.6603 387.864 48.6603C387.128 48.6603 386.539 48.8603 386.096 49.2603C385.654 49.655 385.432 50.2363 385.432 51.0043C385.432 51.7617 385.656 52.343 386.104 52.7483C386.552 53.1483 387.139 53.3483 387.864 53.3483ZM387.864 47.5243C388.504 47.5243 389.024 47.3617 389.424 47.0363C389.824 46.7057 390.024 46.2177 390.024 45.5723C390.024 44.927 389.824 44.4443 389.424 44.1243C389.024 43.799 388.504 43.6363 387.864 43.6363C387.224 43.6363 386.704 43.799 386.304 44.1243C385.91 44.4443 385.712 44.927 385.712 45.5723C385.712 46.2177 385.91 46.7057 386.304 47.0363C386.704 47.3617 387.224 47.5243 387.864 47.5243ZM393.858 54.2363V52.8683H395.226V54.2363H393.858ZM397.376 54.2283L397.384 53.1563L402.592 48.4523C403.04 48.047 403.336 47.663 403.48 47.3003C403.63 46.9323 403.704 46.5483 403.704 46.1483C403.704 45.6737 403.592 45.2443 403.368 44.8603C403.144 44.4763 402.843 44.1723 402.464 43.9483C402.086 43.719 401.662 43.6043 401.192 43.6043C400.702 43.6043 400.264 43.7217 399.88 43.9563C399.496 44.191 399.192 44.5003 398.968 44.8843C398.75 45.2683 398.643 45.687 398.648 46.1403H397.448C397.448 45.4417 397.614 44.815 397.944 44.2603C398.275 43.7057 398.723 43.271 399.288 42.9563C399.854 42.6363 400.494 42.4763 401.208 42.4763C401.907 42.4763 402.534 42.6417 403.088 42.9723C403.648 43.2977 404.088 43.7403 404.408 44.3003C404.734 44.855 404.896 45.4737 404.896 46.1563C404.896 46.6363 404.838 47.0603 404.72 47.4283C404.608 47.791 404.43 48.1297 404.184 48.4443C403.944 48.7537 403.638 49.0737 403.264 49.4043L398.64 53.5803L398.456 53.1003H404.896V54.2283H397.376ZM408.829 54.2363V44.0283L406.661 45.3323V44.0123L408.829 42.7163H410.021V54.2363H408.829ZM413.048 54.2363L413.056 42.7163H414.24V49.7563L418.096 45.5963H419.664L415.616 49.9163L420.192 54.2363H418.48L414.24 50.0763V54.2363H413.048Z" fill="black"/>
<path d="M385.799 73.4361L392.199 67.0361L379.399 67.0361L385.799 73.4361Z" fill="#9BFFBE"/>
<rect width="166.4" height="57.6" rx="28.8" transform="matrix(0.746643 -0.665225 0.665226 0.746642 330.6 138.03)" fill="white" stroke="#B3B3B2" stroke-width="0.6"/>
<g clip-path="url(#clip1_2892_20323)">
<path fill-rule="evenodd" clip-rule="evenodd" d="M384.266 113.252C379.419 117.57 378.991 124.999 383.309 129.846C387.627 134.693 395.057 135.121 399.903 130.803C404.75 126.485 405.178 119.055 400.86 114.209C396.542 109.362 389.113 108.933 384.266 113.252ZM396.388 116.407C392.063 117.247 387.259 121.25 385.289 124.475C384.973 124.993 384.296 125.157 383.778 124.84C383.26 124.523 383.096 123.847 383.413 123.329C385.675 119.626 390.989 115.217 395.968 114.248C396.565 114.132 397.141 114.522 397.257 115.118C397.373 115.714 396.984 116.291 396.388 116.407ZM398.512 118.977C398.601 119.476 398.27 119.952 397.772 120.041C394.122 120.693 390.152 123.477 388.116 126.809C387.852 127.241 387.288 127.377 386.857 127.114C386.425 126.85 386.289 126.286 386.552 125.854C388.878 122.048 393.258 118.986 397.449 118.237C397.947 118.149 398.424 118.48 398.512 118.977ZM399.568 122.323C399.64 122.722 399.376 123.104 398.978 123.176C395.795 123.752 392.948 125.779 390.515 129.198C390.28 129.528 389.823 129.605 389.493 129.37C389.164 129.136 389.086 128.679 389.321 128.349C391.983 124.606 395.144 122.38 398.716 121.733C399.114 121.661 399.496 121.925 399.568 122.323Z" fill="#1ED760"/>
<path d="M406.583 107.9C404.746 108.889 404.25 108.876 403.775 108.343C403.327 107.84 403.499 107.078 404.204 106.45C404.887 105.842 405.794 105.496 406.976 105.392C407.012 105.389 407.045 105.371 407.067 105.344C407.09 105.316 407.101 105.281 407.097 105.245L406.907 103.543C406.9 103.473 406.839 103.421 406.768 103.425C405.319 103.499 404.073 104.018 402.96 105.009C401.324 106.467 401.056 108.467 402.308 109.871C403.65 111.378 405.111 111.033 407.181 109.927C408.929 108.969 409.423 109.031 409.868 109.531C410.362 110.085 410.174 110.871 409.378 111.58C408.493 112.368 407.507 112.713 406.077 112.733C406.042 112.734 406.007 112.75 405.983 112.774C405.958 112.8 405.945 112.834 405.946 112.87L405.996 114.596C405.998 114.668 406.057 114.725 406.129 114.725C407.814 114.727 409.364 114.141 410.61 113.03C412.373 111.46 412.654 109.482 411.325 107.991C410.203 106.731 408.829 106.705 406.583 107.9Z" fill="#1ED760"/>
<path fill-rule="evenodd" clip-rule="evenodd" d="M410.749 103.154C410.717 102.077 411.075 101.217 411.839 100.537C413.259 99.2716 415.671 99.0842 417.533 101.174C419.394 103.263 418.93 105.637 417.511 106.902C416.747 107.582 415.867 107.858 414.834 107.738L417.003 110.173C417.051 110.227 417.047 110.312 416.992 110.36L415.635 111.569C415.581 111.618 415.496 111.613 415.448 111.558L408.576 103.845C408.527 103.79 408.532 103.706 408.586 103.657L409.943 102.449C409.998 102.4 410.082 102.405 410.131 102.46L410.749 103.154ZM415.971 105.806C416.909 104.97 416.903 103.643 415.955 102.579C415.022 101.533 413.675 101.37 412.752 102.193C411.824 103.02 411.816 104.419 412.734 105.449C413.652 106.48 415.043 106.632 415.971 105.806Z" fill="#1ED760"/>
<path fill-rule="evenodd" clip-rule="evenodd" d="M418.381 94.7085C416.552 96.3376 416.374 99.0218 417.976 100.82C419.56 102.598 422.224 102.723 424.04 101.106C425.875 99.4707 426.062 96.7872 424.466 94.9964C422.876 93.2114 420.203 93.0848 418.381 94.7085ZM422.836 99.7089C421.863 100.575 420.434 100.447 419.511 99.4113C418.584 98.3708 418.619 96.9851 419.595 96.116C420.574 95.2439 422.008 95.3677 422.932 96.4044C423.858 97.4446 423.818 98.8341 422.836 99.7089Z" fill="#1ED760"/>
<path d="M424.153 89.7887L425.646 88.4585C425.7 88.4097 425.784 88.415 425.833 88.4697L426.872 89.6358C426.921 89.6906 426.916 89.7745 426.862 89.8233L425.369 91.1535L427.867 93.9579C428.262 94.4009 428.632 94.4253 429.067 94.0376C429.35 93.786 429.548 93.5002 429.693 93.1358C429.71 93.0939 429.747 93.062 429.793 93.0543C429.838 93.0462 429.885 93.0625 429.916 93.0968L430.905 94.2072C430.937 94.2426 430.947 94.2931 430.931 94.3379C430.743 94.8927 430.429 95.3529 429.942 95.7865C428.746 96.8528 427.588 96.7753 426.502 95.5561L423.814 92.539L423.161 93.1202C423.107 93.1689 423.023 93.1636 422.974 93.1088L421.935 91.9428C421.886 91.8881 421.891 91.8041 421.945 91.7554L422.598 91.1742L421.237 89.6477C421.189 89.593 421.194 89.5086 421.249 89.4597L422.605 88.2511C422.66 88.2022 422.744 88.2075 422.793 88.2622L424.153 89.7887Z" fill="#1ED760"/>
<path d="M430.852 83.83L430.685 83.6425C430.194 83.091 430.186 82.6566 430.661 82.2341C430.943 81.9821 431.221 81.8359 431.551 81.694C431.591 81.676 431.619 81.6419 431.628 81.6006C431.637 81.5585 431.625 81.5152 431.597 81.4834L430.578 80.3401C430.54 80.2964 430.477 80.2826 430.423 80.3073C430.083 80.4668 429.666 80.6911 429.151 81.1499C427.898 82.2664 427.865 83.5623 429.053 84.8965L429.309 85.1836L428.657 85.7643C428.603 85.8131 428.598 85.8977 428.647 85.9525L429.691 87.1243C429.739 87.1792 429.824 87.1838 429.879 87.1351L430.531 86.5544L434.677 91.2081C434.726 91.2629 434.81 91.268 434.864 91.2193L436.221 90.0106C436.276 89.9618 436.281 89.8775 436.232 89.8227L432.086 85.1689L433.352 84.0404L439.438 86.964C439.653 87.6491 439.523 87.9393 439.227 88.2028C438.988 88.4158 438.673 88.5687 438.29 88.6571C438.254 88.6654 438.224 88.6887 438.205 88.7201C438.187 88.7524 438.182 88.791 438.194 88.826L438.633 90.2445C438.653 90.3117 438.722 90.3511 438.79 90.3349C439.501 90.1672 440.034 89.892 440.569 89.4149C441.571 88.5224 441.709 87.5623 441.079 85.8719L438.014 77.6928C437.998 77.6518 437.964 77.6203 437.921 77.6098C437.878 77.5995 437.834 77.6101 437.801 77.6394L436.388 78.8978C436.346 78.9354 436.332 78.9961 436.354 79.0481L438.589 84.4699L433.32 81.7464C433.271 81.7209 433.211 81.7284 433.17 81.7651L430.852 83.83Z" fill="#1ED760"/>
<path d="M426.475 87.7193L427.832 86.5105C427.886 86.4617 427.971 86.4666 428.02 86.5213L433.293 92.4405C433.342 92.4953 433.337 92.5796 433.283 92.6283L431.926 93.8371C431.871 93.8859 431.787 93.8811 431.738 93.8263L426.464 87.9071C426.415 87.8524 426.42 87.7681 426.475 87.7193Z" fill="#1ED760"/>
<path d="M424.759 84.4143C424.221 84.8931 424.173 85.7169 424.652 86.2543C425.131 86.7921 425.955 86.8391 426.492 86.3603C427.03 85.8816 427.077 85.0578 426.598 84.52C426.119 83.9825 425.296 83.9356 424.759 84.4143Z" fill="#1ED760"/>
<path fill-rule="evenodd" clip-rule="evenodd" d="M440.796 77.5057L440.189 77.3682C440.291 77.2059 440.296 77.0209 440.15 76.8566C439.971 76.6561 439.712 76.6734 439.479 76.8808L439.032 77.279L439.925 78.2812L440.116 78.1114L439.807 77.7645L440.016 77.5784L440.568 77.7086L440.796 77.5057ZM439.376 77.281L439.625 77.0596C439.749 76.949 439.872 76.9384 439.964 77.0415C440.051 77.1393 440.031 77.266 439.907 77.3766L439.658 77.598L439.376 77.281Z" fill="#1ED760"/>
<path fill-rule="evenodd" clip-rule="evenodd" d="M438.935 78.3191C439.401 78.8428 440.203 78.9017 440.74 78.4234C441.277 77.9451 441.311 77.1317 440.844 76.6079C440.378 76.0847 439.576 76.0259 439.039 76.5042C438.503 76.9822 438.468 77.7955 438.935 78.3191ZM439.035 78.2295C438.611 77.7534 438.635 77.0349 439.124 76.5992C439.61 76.1656 440.32 76.2216 440.744 76.6974C441.168 77.1738 441.144 77.8923 440.655 78.3279C440.168 78.7615 439.459 78.7054 439.035 78.2295Z" fill="#1ED760"/>
</g>
<rect x="89.625" y="64.6367" width="133.12" height="46.08" rx="23.04" transform="rotate(25.4812 89.625 64.6367)" fill="white" stroke="#B3B3B2" stroke-width="0.48"/>
<g clip-path="url(#clip2_2892_20323)">
<path d="M162.59 118.627L160.69 117.721L161.958 115.061L157.785 113.072L154.598 114.818L151.187 113.193L149.504 113.79L150.047 112.649L147.386 111.381L148.654 108.721L140.292 104.735L139.024 107.396L127.26 101.79L126.609 98.2143L122.428 96.2217L118.08 105.344L120.866 113.201L126.187 115.737L126.912 114.217L127.707 116.462L137.97 121.353L138.694 119.832L139.49 122.077L144.432 124.432L145.156 122.912L145.952 125.157L155.454 129.685L160.505 127.895L163.585 121.433L162.59 118.627ZM125.81 105.763L123.149 104.495L122.787 105.255L125.448 106.523L123.998 109.564L119.817 107.571L119.022 105.326L122.826 97.3442L125.866 98.7933L124.598 101.454L127.259 102.722L125.81 105.763ZM135.401 114.998L126.279 110.651L125.483 108.406L128.019 103.084L131.06 104.533L129.249 108.334L130.009 108.697L131.82 104.896L134.861 106.345L133.05 110.146L133.81 110.508L135.621 106.707L138.662 108.156L135.401 114.998ZM139.202 116.809L136.162 115.36L139.422 108.519L142.463 109.968L139.202 116.809ZM142.825 109.208L139.784 107.758L140.69 105.858L143.731 107.307L142.825 109.208ZM147.475 116.088L144.815 114.82L144.452 115.58L147.113 116.848L145.664 119.889L141.483 117.896L140.687 115.651L144.491 107.669L147.532 109.118L146.264 111.779L148.925 113.047L147.475 116.088ZM154.317 119.348L151.276 117.899L150.914 118.66L153.955 120.109L152.506 123.149L147.945 120.976L147.149 118.731L148.96 114.93L151.205 114.134L155.766 116.308L154.317 119.348ZM160.108 126.772L157.067 125.323L158.878 121.522L158.118 121.16L156.307 124.961L153.266 123.512L157.794 114.009L160.835 115.458L159.567 118.119L161.848 119.206L162.644 121.451L160.108 126.772Z" fill="#000008"/>
</g>
<defs>
<clipPath id="clip0_2892_20323">
<rect width="95.4529" height="31.8176" fill="white" transform="matrix(0.857519 0.514452 -0.514453 0.857518 264.998 15.8232)"/>
</clipPath>
<clipPath id="clip1_2892_20323">
<rect width="120" height="40" fill="white" transform="matrix(0.746643 -0.665225 0.665226 0.746642 354.373 128.635)"/>
</clipPath>
<clipPath id="clip2_2892_20323">
<rect width="96.0001" height="32" fill="white" transform="translate(103.928 79.252) rotate(25.4812)"/>
</clipPath>
</defs>
</svg>
